<mxfile host="app.diagrams.net" agent="Mozilla/5.0 (Windows NT 10.0; Win64; x64) AppleWebKit/537.36 (KHTML, like Gecko) Chrome/129.0.0.0 Safari/537.36 Edg/129.0.0.0" version="24.7.17" pages="2">
  <diagram name="Page-1" id="5Uai3kXf6yA9qKj4Lc8t">
    <mxGraphModel dx="996" dy="646" grid="1" gridSize="10" guides="1" tooltips="1" connect="1" arrows="1" fold="1" page="1" pageScale="1" pageWidth="850" pageHeight="1100" math="0" shadow="0">
      <root>
        <mxCell id="0" />
        <mxCell id="1" parent="0" />
        <mxCell id="2" value="CUSTOMER" style="shape=table;startSize=25;container=1;collapsible=0;childLayout=tableLayout;fixedRows=1;rowLines=1;fontStyle=1;align=center;resizeLast=1;" parent="1" vertex="1">
          <mxGeometry x="20" y="20" width="116" height="157" as="geometry" />
        </mxCell>
        <mxCell id="3" style="shape=tableRow;horizontal=0;startSize=0;swimlaneHead=0;swimlaneBody=0;fillColor=none;collapsible=0;dropTarget=0;points=[[0,0.5],[1,0.5]];portConstraint=eastwest;top=0;left=0;right=0;bottom=0;" parent="2" vertex="1">
          <mxGeometry y="25" width="116" height="22" as="geometry" />
        </mxCell>
        <mxCell id="4" value="string" style="shape=partialRectangle;connectable=0;fillColor=none;top=0;left=0;bottom=0;right=0;align=left;spacingLeft=2;overflow=hidden;fontSize=11;" parent="3" vertex="1">
          <mxGeometry width="36" height="22" as="geometry">
            <mxRectangle width="36" height="22" as="alternateBounds" />
          </mxGeometry>
        </mxCell>
        <mxCell id="5" value="customer_id" style="shape=partialRectangle;connectable=0;fillColor=none;top=0;left=0;bottom=0;right=0;align=left;spacingLeft=2;overflow=hidden;fontSize=11;" parent="3" vertex="1">
          <mxGeometry x="36" width="80" height="22" as="geometry">
            <mxRectangle width="80" height="22" as="alternateBounds" />
          </mxGeometry>
        </mxCell>
        <mxCell id="6" style="shape=tableRow;horizontal=0;startSize=0;swimlaneHead=0;swimlaneBody=0;fillColor=none;collapsible=0;dropTarget=0;points=[[0,0.5],[1,0.5]];portConstraint=eastwest;top=0;left=0;right=0;bottom=0;" parent="2" vertex="1">
          <mxGeometry y="47" width="116" height="22" as="geometry" />
        </mxCell>
        <mxCell id="7" value="string" style="shape=partialRectangle;connectable=0;fillColor=none;top=0;left=0;bottom=0;right=0;align=left;spacingLeft=2;overflow=hidden;fontSize=11;" parent="6" vertex="1">
          <mxGeometry width="36" height="22" as="geometry">
            <mxRectangle width="36" height="22" as="alternateBounds" />
          </mxGeometry>
        </mxCell>
        <mxCell id="8" value="name" style="shape=partialRectangle;connectable=0;fillColor=none;top=0;left=0;bottom=0;right=0;align=left;spacingLeft=2;overflow=hidden;fontSize=11;" parent="6" vertex="1">
          <mxGeometry x="36" width="80" height="22" as="geometry">
            <mxRectangle width="80" height="22" as="alternateBounds" />
          </mxGeometry>
        </mxCell>
        <mxCell id="9" style="shape=tableRow;horizontal=0;startSize=0;swimlaneHead=0;swimlaneBody=0;fillColor=none;collapsible=0;dropTarget=0;points=[[0,0.5],[1,0.5]];portConstraint=eastwest;top=0;left=0;right=0;bottom=0;" parent="2" vertex="1">
          <mxGeometry y="69" width="116" height="22" as="geometry" />
        </mxCell>
        <mxCell id="10" value="date" style="shape=partialRectangle;connectable=0;fillColor=none;top=0;left=0;bottom=0;right=0;align=left;spacingLeft=2;overflow=hidden;fontSize=11;" parent="9" vertex="1">
          <mxGeometry width="36" height="22" as="geometry">
            <mxRectangle width="36" height="22" as="alternateBounds" />
          </mxGeometry>
        </mxCell>
        <mxCell id="11" value="dob" style="shape=partialRectangle;connectable=0;fillColor=none;top=0;left=0;bottom=0;right=0;align=left;spacingLeft=2;overflow=hidden;fontSize=11;" parent="9" vertex="1">
          <mxGeometry x="36" width="80" height="22" as="geometry">
            <mxRectangle width="80" height="22" as="alternateBounds" />
          </mxGeometry>
        </mxCell>
        <mxCell id="12" style="shape=tableRow;horizontal=0;startSize=0;swimlaneHead=0;swimlaneBody=0;fillColor=none;collapsible=0;dropTarget=0;points=[[0,0.5],[1,0.5]];portConstraint=eastwest;top=0;left=0;right=0;bottom=0;" parent="2" vertex="1">
          <mxGeometry y="91" width="116" height="22" as="geometry" />
        </mxCell>
        <mxCell id="13" value="string" style="shape=partialRectangle;connectable=0;fillColor=none;top=0;left=0;bottom=0;right=0;align=left;spacingLeft=2;overflow=hidden;fontSize=11;" parent="12" vertex="1">
          <mxGeometry width="36" height="22" as="geometry">
            <mxRectangle width="36" height="22" as="alternateBounds" />
          </mxGeometry>
        </mxCell>
        <mxCell id="14" value="email" style="shape=partialRectangle;connectable=0;fillColor=none;top=0;left=0;bottom=0;right=0;align=left;spacingLeft=2;overflow=hidden;fontSize=11;" parent="12" vertex="1">
          <mxGeometry x="36" width="80" height="22" as="geometry">
            <mxRectangle width="80" height="22" as="alternateBounds" />
          </mxGeometry>
        </mxCell>
        <mxCell id="15" style="shape=tableRow;horizontal=0;startSize=0;swimlaneHead=0;swimlaneBody=0;fillColor=none;collapsible=0;dropTarget=0;points=[[0,0.5],[1,0.5]];portConstraint=eastwest;top=0;left=0;right=0;bottom=0;" parent="2" vertex="1">
          <mxGeometry y="113" width="116" height="22" as="geometry" />
        </mxCell>
        <mxCell id="16" value="string" style="shape=partialRectangle;connectable=0;fillColor=none;top=0;left=0;bottom=0;right=0;align=left;spacingLeft=2;overflow=hidden;fontSize=11;" parent="15" vertex="1">
          <mxGeometry width="36" height="22" as="geometry">
            <mxRectangle width="36" height="22" as="alternateBounds" />
          </mxGeometry>
        </mxCell>
        <mxCell id="17" value="phone" style="shape=partialRectangle;connectable=0;fillColor=none;top=0;left=0;bottom=0;right=0;align=left;spacingLeft=2;overflow=hidden;fontSize=11;" parent="15" vertex="1">
          <mxGeometry x="36" width="80" height="22" as="geometry">
            <mxRectangle width="80" height="22" as="alternateBounds" />
          </mxGeometry>
        </mxCell>
        <mxCell id="18" style="shape=tableRow;horizontal=0;startSize=0;swimlaneHead=0;swimlaneBody=0;fillColor=none;collapsible=0;dropTarget=0;points=[[0,0.5],[1,0.5]];portConstraint=eastwest;top=0;left=0;right=0;bottom=0;" parent="2" vertex="1">
          <mxGeometry y="135" width="116" height="22" as="geometry" />
        </mxCell>
        <mxCell id="19" value="string" style="shape=partialRectangle;connectable=0;fillColor=none;top=0;left=0;bottom=0;right=0;align=left;spacingLeft=2;overflow=hidden;fontSize=11;" parent="18" vertex="1">
          <mxGeometry width="36" height="22" as="geometry">
            <mxRectangle width="36" height="22" as="alternateBounds" />
          </mxGeometry>
        </mxCell>
        <mxCell id="20" value="address" style="shape=partialRectangle;connectable=0;fillColor=none;top=0;left=0;bottom=0;right=0;align=left;spacingLeft=2;overflow=hidden;fontSize=11;" parent="18" vertex="1">
          <mxGeometry x="36" width="80" height="22" as="geometry">
            <mxRectangle width="80" height="22" as="alternateBounds" />
          </mxGeometry>
        </mxCell>
        <mxCell id="21" value="PRODUCT" style="shape=table;startSize=25;container=1;collapsible=0;childLayout=tableLayout;fixedRows=1;rowLines=1;fontStyle=1;align=center;resizeLast=1;" parent="1" vertex="1">
          <mxGeometry x="222" y="276" width="124" height="135" as="geometry" />
        </mxCell>
        <mxCell id="22" style="shape=tableRow;horizontal=0;startSize=0;swimlaneHead=0;swimlaneBody=0;fillColor=none;collapsible=0;dropTarget=0;points=[[0,0.5],[1,0.5]];portConstraint=eastwest;top=0;left=0;right=0;bottom=0;" parent="21" vertex="1">
          <mxGeometry y="25" width="124" height="22" as="geometry" />
        </mxCell>
        <mxCell id="23" value="string" style="shape=partialRectangle;connectable=0;fillColor=none;top=0;left=0;bottom=0;right=0;align=left;spacingLeft=2;overflow=hidden;fontSize=11;" parent="22" vertex="1">
          <mxGeometry width="36" height="22" as="geometry">
            <mxRectangle width="36" height="22" as="alternateBounds" />
          </mxGeometry>
        </mxCell>
        <mxCell id="24" value="product_id" style="shape=partialRectangle;connectable=0;fillColor=none;top=0;left=0;bottom=0;right=0;align=left;spacingLeft=2;overflow=hidden;fontSize=11;" parent="22" vertex="1">
          <mxGeometry x="36" width="88" height="22" as="geometry">
            <mxRectangle width="88" height="22" as="alternateBounds" />
          </mxGeometry>
        </mxCell>
        <mxCell id="25" style="shape=tableRow;horizontal=0;startSize=0;swimlaneHead=0;swimlaneBody=0;fillColor=none;collapsible=0;dropTarget=0;points=[[0,0.5],[1,0.5]];portConstraint=eastwest;top=0;left=0;right=0;bottom=0;" parent="21" vertex="1">
          <mxGeometry y="47" width="124" height="22" as="geometry" />
        </mxCell>
        <mxCell id="26" value="string" style="shape=partialRectangle;connectable=0;fillColor=none;top=0;left=0;bottom=0;right=0;align=left;spacingLeft=2;overflow=hidden;fontSize=11;" parent="25" vertex="1">
          <mxGeometry width="36" height="22" as="geometry">
            <mxRectangle width="36" height="22" as="alternateBounds" />
          </mxGeometry>
        </mxCell>
        <mxCell id="27" value="name" style="shape=partialRectangle;connectable=0;fillColor=none;top=0;left=0;bottom=0;right=0;align=left;spacingLeft=2;overflow=hidden;fontSize=11;" parent="25" vertex="1">
          <mxGeometry x="36" width="88" height="22" as="geometry">
            <mxRectangle width="88" height="22" as="alternateBounds" />
          </mxGeometry>
        </mxCell>
        <mxCell id="28" style="shape=tableRow;horizontal=0;startSize=0;swimlaneHead=0;swimlaneBody=0;fillColor=none;collapsible=0;dropTarget=0;points=[[0,0.5],[1,0.5]];portConstraint=eastwest;top=0;left=0;right=0;bottom=0;" parent="21" vertex="1">
          <mxGeometry y="69" width="124" height="22" as="geometry" />
        </mxCell>
        <mxCell id="29" value="string" style="shape=partialRectangle;connectable=0;fillColor=none;top=0;left=0;bottom=0;right=0;align=left;spacingLeft=2;overflow=hidden;fontSize=11;" parent="28" vertex="1">
          <mxGeometry width="36" height="22" as="geometry">
            <mxRectangle width="36" height="22" as="alternateBounds" />
          </mxGeometry>
        </mxCell>
        <mxCell id="30" value="category" style="shape=partialRectangle;connectable=0;fillColor=none;top=0;left=0;bottom=0;right=0;align=left;spacingLeft=2;overflow=hidden;fontSize=11;" parent="28" vertex="1">
          <mxGeometry x="36" width="88" height="22" as="geometry">
            <mxRectangle width="88" height="22" as="alternateBounds" />
          </mxGeometry>
        </mxCell>
        <mxCell id="31" style="shape=tableRow;horizontal=0;startSize=0;swimlaneHead=0;swimlaneBody=0;fillColor=none;collapsible=0;dropTarget=0;points=[[0,0.5],[1,0.5]];portConstraint=eastwest;top=0;left=0;right=0;bottom=0;" parent="21" vertex="1">
          <mxGeometry y="91" width="124" height="22" as="geometry" />
        </mxCell>
        <mxCell id="32" value="float" style="shape=partialRectangle;connectable=0;fillColor=none;top=0;left=0;bottom=0;right=0;align=left;spacingLeft=2;overflow=hidden;fontSize=11;" parent="31" vertex="1">
          <mxGeometry width="36" height="22" as="geometry">
            <mxRectangle width="36" height="22" as="alternateBounds" />
          </mxGeometry>
        </mxCell>
        <mxCell id="33" value="price" style="shape=partialRectangle;connectable=0;fillColor=none;top=0;left=0;bottom=0;right=0;align=left;spacingLeft=2;overflow=hidden;fontSize=11;" parent="31" vertex="1">
          <mxGeometry x="36" width="88" height="22" as="geometry">
            <mxRectangle width="88" height="22" as="alternateBounds" />
          </mxGeometry>
        </mxCell>
        <mxCell id="34" style="shape=tableRow;horizontal=0;startSize=0;swimlaneHead=0;swimlaneBody=0;fillColor=none;collapsible=0;dropTarget=0;points=[[0,0.5],[1,0.5]];portConstraint=eastwest;top=0;left=0;right=0;bottom=0;" parent="21" vertex="1">
          <mxGeometry y="113" width="124" height="22" as="geometry" />
        </mxCell>
        <mxCell id="35" value="int" style="shape=partialRectangle;connectable=0;fillColor=none;top=0;left=0;bottom=0;right=0;align=left;spacingLeft=2;overflow=hidden;fontSize=11;" parent="34" vertex="1">
          <mxGeometry width="36" height="22" as="geometry">
            <mxRectangle width="36" height="22" as="alternateBounds" />
          </mxGeometry>
        </mxCell>
        <mxCell id="36" value="stock_quantity" style="shape=partialRectangle;connectable=0;fillColor=none;top=0;left=0;bottom=0;right=0;align=left;spacingLeft=2;overflow=hidden;fontSize=11;" parent="34" vertex="1">
          <mxGeometry x="36" width="88" height="22" as="geometry">
            <mxRectangle width="88" height="22" as="alternateBounds" />
          </mxGeometry>
        </mxCell>
        <mxCell id="37" value="ORDER" style="shape=table;startSize=25;container=1;collapsible=0;childLayout=tableLayout;fixedRows=1;rowLines=1;fontStyle=1;align=center;resizeLast=1;" parent="1" vertex="1">
          <mxGeometry x="20" y="298" width="106" height="91" as="geometry" />
        </mxCell>
        <mxCell id="38" style="shape=tableRow;horizontal=0;startSize=0;swimlaneHead=0;swimlaneBody=0;fillColor=none;collapsible=0;dropTarget=0;points=[[0,0.5],[1,0.5]];portConstraint=eastwest;top=0;left=0;right=0;bottom=0;" parent="37" vertex="1">
          <mxGeometry y="25" width="106" height="22" as="geometry" />
        </mxCell>
        <mxCell id="39" value="string" style="shape=partialRectangle;connectable=0;fillColor=none;top=0;left=0;bottom=0;right=0;align=left;spacingLeft=2;overflow=hidden;fontSize=11;" parent="38" vertex="1">
          <mxGeometry width="36" height="22" as="geometry">
            <mxRectangle width="36" height="22" as="alternateBounds" />
          </mxGeometry>
        </mxCell>
        <mxCell id="40" value="order_id" style="shape=partialRectangle;connectable=0;fillColor=none;top=0;left=0;bottom=0;right=0;align=left;spacingLeft=2;overflow=hidden;fontSize=11;" parent="38" vertex="1">
          <mxGeometry x="36" width="70" height="22" as="geometry">
            <mxRectangle width="70" height="22" as="alternateBounds" />
          </mxGeometry>
        </mxCell>
        <mxCell id="41" style="shape=tableRow;horizontal=0;startSize=0;swimlaneHead=0;swimlaneBody=0;fillColor=none;collapsible=0;dropTarget=0;points=[[0,0.5],[1,0.5]];portConstraint=eastwest;top=0;left=0;right=0;bottom=0;" parent="37" vertex="1">
          <mxGeometry y="47" width="106" height="22" as="geometry" />
        </mxCell>
        <mxCell id="42" value="date" style="shape=partialRectangle;connectable=0;fillColor=none;top=0;left=0;bottom=0;right=0;align=left;spacingLeft=2;overflow=hidden;fontSize=11;" parent="41" vertex="1">
          <mxGeometry width="36" height="22" as="geometry">
            <mxRectangle width="36" height="22" as="alternateBounds" />
          </mxGeometry>
        </mxCell>
        <mxCell id="43" value="order_date" style="shape=partialRectangle;connectable=0;fillColor=none;top=0;left=0;bottom=0;right=0;align=left;spacingLeft=2;overflow=hidden;fontSize=11;" parent="41" vertex="1">
          <mxGeometry x="36" width="70" height="22" as="geometry">
            <mxRectangle width="70" height="22" as="alternateBounds" />
          </mxGeometry>
        </mxCell>
        <mxCell id="44" style="shape=tableRow;horizontal=0;startSize=0;swimlaneHead=0;swimlaneBody=0;fillColor=none;collapsible=0;dropTarget=0;points=[[0,0.5],[1,0.5]];portConstraint=eastwest;top=0;left=0;right=0;bottom=0;" parent="37" vertex="1">
          <mxGeometry y="69" width="106" height="22" as="geometry" />
        </mxCell>
        <mxCell id="45" value="string" style="shape=partialRectangle;connectable=0;fillColor=none;top=0;left=0;bottom=0;right=0;align=left;spacingLeft=2;overflow=hidden;fontSize=11;" parent="44" vertex="1">
          <mxGeometry width="36" height="22" as="geometry">
            <mxRectangle width="36" height="22" as="alternateBounds" />
          </mxGeometry>
        </mxCell>
        <mxCell id="46" value="customer_id" style="shape=partialRectangle;connectable=0;fillColor=none;top=0;left=0;bottom=0;right=0;align=left;spacingLeft=2;overflow=hidden;fontSize=11;" parent="44" vertex="1">
          <mxGeometry x="36" width="70" height="22" as="geometry">
            <mxRectangle width="70" height="22" as="alternateBounds" />
          </mxGeometry>
        </mxCell>
        <mxCell id="47" value="ORDER_LINE" style="shape=table;startSize=25;container=1;collapsible=0;childLayout=tableLayout;fixedRows=1;rowLines=1;fontStyle=1;align=center;resizeLast=1;" parent="1" vertex="1">
          <mxGeometry x="125" y="509" width="101" height="91" as="geometry" />
        </mxCell>
        <mxCell id="48" style="shape=tableRow;horizontal=0;startSize=0;swimlaneHead=0;swimlaneBody=0;fillColor=none;collapsible=0;dropTarget=0;points=[[0,0.5],[1,0.5]];portConstraint=eastwest;top=0;left=0;right=0;bottom=0;" parent="47" vertex="1">
          <mxGeometry y="25" width="101" height="22" as="geometry" />
        </mxCell>
        <mxCell id="49" value="string" style="shape=partialRectangle;connectable=0;fillColor=none;top=0;left=0;bottom=0;right=0;align=left;spacingLeft=2;overflow=hidden;fontSize=11;" parent="48" vertex="1">
          <mxGeometry width="36" height="22" as="geometry">
            <mxRectangle width="36" height="22" as="alternateBounds" />
          </mxGeometry>
        </mxCell>
        <mxCell id="50" value="order_id" style="shape=partialRectangle;connectable=0;fillColor=none;top=0;left=0;bottom=0;right=0;align=left;spacingLeft=2;overflow=hidden;fontSize=11;" parent="48" vertex="1">
          <mxGeometry x="36" width="65" height="22" as="geometry">
            <mxRectangle width="65" height="22" as="alternateBounds" />
          </mxGeometry>
        </mxCell>
        <mxCell id="51" style="shape=tableRow;horizontal=0;startSize=0;swimlaneHead=0;swimlaneBody=0;fillColor=none;collapsible=0;dropTarget=0;points=[[0,0.5],[1,0.5]];portConstraint=eastwest;top=0;left=0;right=0;bottom=0;" parent="47" vertex="1">
          <mxGeometry y="47" width="101" height="22" as="geometry" />
        </mxCell>
        <mxCell id="52" value="string" style="shape=partialRectangle;connectable=0;fillColor=none;top=0;left=0;bottom=0;right=0;align=left;spacingLeft=2;overflow=hidden;fontSize=11;" parent="51" vertex="1">
          <mxGeometry width="36" height="22" as="geometry">
            <mxRectangle width="36" height="22" as="alternateBounds" />
          </mxGeometry>
        </mxCell>
        <mxCell id="53" value="product_id" style="shape=partialRectangle;connectable=0;fillColor=none;top=0;left=0;bottom=0;right=0;align=left;spacingLeft=2;overflow=hidden;fontSize=11;" parent="51" vertex="1">
          <mxGeometry x="36" width="65" height="22" as="geometry">
            <mxRectangle width="65" height="22" as="alternateBounds" />
          </mxGeometry>
        </mxCell>
        <mxCell id="54" style="shape=tableRow;horizontal=0;startSize=0;swimlaneHead=0;swimlaneBody=0;fillColor=none;collapsible=0;dropTarget=0;points=[[0,0.5],[1,0.5]];portConstraint=eastwest;top=0;left=0;right=0;bottom=0;" parent="47" vertex="1">
          <mxGeometry y="69" width="101" height="22" as="geometry" />
        </mxCell>
        <mxCell id="55" value="int" style="shape=partialRectangle;connectable=0;fillColor=none;top=0;left=0;bottom=0;right=0;align=left;spacingLeft=2;overflow=hidden;fontSize=11;" parent="54" vertex="1">
          <mxGeometry width="36" height="22" as="geometry">
            <mxRectangle width="36" height="22" as="alternateBounds" />
          </mxGeometry>
        </mxCell>
        <mxCell id="56" value="quantity" style="shape=partialRectangle;connectable=0;fillColor=none;top=0;left=0;bottom=0;right=0;align=left;spacingLeft=2;overflow=hidden;fontSize=11;" parent="54" vertex="1">
          <mxGeometry x="36" width="65" height="22" as="geometry">
            <mxRectangle width="65" height="22" as="alternateBounds" />
          </mxGeometry>
        </mxCell>
        <mxCell id="57" value="places" style="curved=1;startArrow=ERmandOne;startSize=10;;endArrow=ERmandOne;endSize=10;;exitX=0.5;exitY=1;entryX=0.5;entryY=0;" parent="1" source="2" target="37" edge="1">
          <mxGeometry relative="1" as="geometry">
            <Array as="points" />
          </mxGeometry>
        </mxCell>
        <mxCell id="58" value="contains" style="curved=1;startArrow=ERmandOne;startSize=10;;endArrow=ERzeroToOne;endSize=10;;exitX=0.5;exitY=0.99;entryX=0.01;entryY=0;" parent="1" source="37" target="47" edge="1">
          <mxGeometry relative="1" as="geometry">
            <Array as="points">
              <mxPoint x="71" y="459" />
            </Array>
          </mxGeometry>
        </mxCell>
        <mxCell id="59" value="includes" style="curved=1;startArrow=ERmandOne;startSize=10;;endArrow=ERzeroToOne;endSize=10;;exitX=0.48;exitY=0.99;entryX=1;entryY=0;" parent="1" source="21" target="47" edge="1">
          <mxGeometry relative="1" as="geometry">
            <Array as="points">
              <mxPoint x="280" y="459" />
            </Array>
          </mxGeometry>
        </mxCell>
      </root>
    </mxGraphModel>
  </diagram>
  <diagram id="G9P1RYFka-3X0FdYnMpb" name="Page-2">
    <mxGraphModel dx="1423" dy="923" grid="1" gridSize="10" guides="1" tooltips="1" connect="1" arrows="1" fold="1" page="1" pageScale="1" pageWidth="850" pageHeight="1100" background="#ffffff" math="0" shadow="0">
      <root>
        <mxCell id="0" />
        <mxCell id="1" parent="0" />
        <mxCell id="ZSmk_y_2do82O0z5rN5d-1" value="[]" style="text;whiteSpace=wrap;html=1;" parent="1" vertex="1">
          <mxGeometry x="90" width="100" height="110" as="geometry" />
        </mxCell>
        <mxCell id="ZSmk_y_2do82O0z5rN5d-2" value="CUSTOMER" style="shape=table;startSize=30;container=1;collapsible=0;childLayout=tableLayout;fixedRows=1;rowLines=1;fontStyle=1;align=center;resizeLast=1;labelBackgroundColor=none;fillColor=#a0522d;strokeColor=#6D1F00;fontColor=#ffffff;" parent="1" vertex="1">
          <mxGeometry x="370" y="420" width="180" height="162" as="geometry" />
        </mxCell>
        <mxCell id="ZSmk_y_2do82O0z5rN5d-3" style="shape=tableRow;horizontal=0;startSize=0;swimlaneHead=0;swimlaneBody=0;collapsible=0;dropTarget=0;points=[[0,0.5],[1,0.5]];portConstraint=eastwest;top=0;left=0;right=0;bottom=0;labelBackgroundColor=none;fillColor=#a0522d;strokeColor=#6D1F00;fontColor=#ffffff;" parent="ZSmk_y_2do82O0z5rN5d-2" vertex="1">
          <mxGeometry y="30" width="180" height="22" as="geometry" />
        </mxCell>
        <mxCell id="ZSmk_y_2do82O0z5rN5d-4" value="string" style="shape=partialRectangle;connectable=0;top=0;left=0;bottom=0;right=0;align=left;spacingLeft=2;overflow=hidden;fontSize=11;labelBackgroundColor=none;fillColor=#a0522d;strokeColor=#6D1F00;fontColor=#ffffff;" parent="ZSmk_y_2do82O0z5rN5d-3" vertex="1">
          <mxGeometry width="36" height="22" as="geometry">
            <mxRectangle width="36" height="22" as="alternateBounds" />
          </mxGeometry>
        </mxCell>
        <mxCell id="ZSmk_y_2do82O0z5rN5d-5" value="customer_id" style="shape=partialRectangle;connectable=0;top=0;left=0;bottom=0;right=0;align=left;spacingLeft=2;overflow=hidden;fontSize=11;labelBackgroundColor=none;fillColor=#a0522d;strokeColor=#6D1F00;fontColor=#ffffff;" parent="ZSmk_y_2do82O0z5rN5d-3" vertex="1">
          <mxGeometry x="36" width="144" height="22" as="geometry">
            <mxRectangle width="144" height="22" as="alternateBounds" />
          </mxGeometry>
        </mxCell>
        <mxCell id="ZSmk_y_2do82O0z5rN5d-6" style="shape=tableRow;horizontal=0;startSize=0;swimlaneHead=0;swimlaneBody=0;collapsible=0;dropTarget=0;points=[[0,0.5],[1,0.5]];portConstraint=eastwest;top=0;left=0;right=0;bottom=0;labelBackgroundColor=none;fillColor=#a0522d;strokeColor=#6D1F00;fontColor=#ffffff;" parent="ZSmk_y_2do82O0z5rN5d-2" vertex="1">
          <mxGeometry y="52" width="180" height="22" as="geometry" />
        </mxCell>
        <mxCell id="ZSmk_y_2do82O0z5rN5d-7" value="string" style="shape=partialRectangle;connectable=0;top=0;left=0;bottom=0;right=0;align=left;spacingLeft=2;overflow=hidden;fontSize=11;labelBackgroundColor=none;fillColor=#a0522d;strokeColor=#6D1F00;fontColor=#ffffff;" parent="ZSmk_y_2do82O0z5rN5d-6" vertex="1">
          <mxGeometry width="36" height="22" as="geometry">
            <mxRectangle width="36" height="22" as="alternateBounds" />
          </mxGeometry>
        </mxCell>
        <mxCell id="ZSmk_y_2do82O0z5rN5d-8" value="name" style="shape=partialRectangle;connectable=0;top=0;left=0;bottom=0;right=0;align=left;spacingLeft=2;overflow=hidden;fontSize=11;labelBackgroundColor=none;fillColor=#a0522d;strokeColor=#6D1F00;fontColor=#ffffff;" parent="ZSmk_y_2do82O0z5rN5d-6" vertex="1">
          <mxGeometry x="36" width="144" height="22" as="geometry">
            <mxRectangle width="144" height="22" as="alternateBounds" />
          </mxGeometry>
        </mxCell>
        <mxCell id="ZSmk_y_2do82O0z5rN5d-9" style="shape=tableRow;horizontal=0;startSize=0;swimlaneHead=0;swimlaneBody=0;collapsible=0;dropTarget=0;points=[[0,0.5],[1,0.5]];portConstraint=eastwest;top=0;left=0;right=0;bottom=0;labelBackgroundColor=none;fillColor=#a0522d;strokeColor=#6D1F00;fontColor=#ffffff;" parent="ZSmk_y_2do82O0z5rN5d-2" vertex="1">
          <mxGeometry y="74" width="180" height="22" as="geometry" />
        </mxCell>
        <mxCell id="ZSmk_y_2do82O0z5rN5d-10" value="date" style="shape=partialRectangle;connectable=0;top=0;left=0;bottom=0;right=0;align=left;spacingLeft=2;overflow=hidden;fontSize=11;labelBackgroundColor=none;fillColor=#a0522d;strokeColor=#6D1F00;fontColor=#ffffff;" parent="ZSmk_y_2do82O0z5rN5d-9" vertex="1">
          <mxGeometry width="36" height="22" as="geometry">
            <mxRectangle width="36" height="22" as="alternateBounds" />
          </mxGeometry>
        </mxCell>
        <mxCell id="ZSmk_y_2do82O0z5rN5d-11" value="dob" style="shape=partialRectangle;connectable=0;top=0;left=0;bottom=0;right=0;align=left;spacingLeft=2;overflow=hidden;fontSize=11;labelBackgroundColor=none;fillColor=#a0522d;strokeColor=#6D1F00;fontColor=#ffffff;" parent="ZSmk_y_2do82O0z5rN5d-9" vertex="1">
          <mxGeometry x="36" width="144" height="22" as="geometry">
            <mxRectangle width="144" height="22" as="alternateBounds" />
          </mxGeometry>
        </mxCell>
        <mxCell id="ZSmk_y_2do82O0z5rN5d-12" style="shape=tableRow;horizontal=0;startSize=0;swimlaneHead=0;swimlaneBody=0;collapsible=0;dropTarget=0;points=[[0,0.5],[1,0.5]];portConstraint=eastwest;top=0;left=0;right=0;bottom=0;labelBackgroundColor=none;fillColor=#a0522d;strokeColor=#6D1F00;fontColor=#ffffff;" parent="ZSmk_y_2do82O0z5rN5d-2" vertex="1">
          <mxGeometry y="96" width="180" height="22" as="geometry" />
        </mxCell>
        <mxCell id="ZSmk_y_2do82O0z5rN5d-13" value="string" style="shape=partialRectangle;connectable=0;top=0;left=0;bottom=0;right=0;align=left;spacingLeft=2;overflow=hidden;fontSize=11;labelBackgroundColor=none;fillColor=#a0522d;strokeColor=#6D1F00;fontColor=#ffffff;" parent="ZSmk_y_2do82O0z5rN5d-12" vertex="1">
          <mxGeometry width="36" height="22" as="geometry">
            <mxRectangle width="36" height="22" as="alternateBounds" />
          </mxGeometry>
        </mxCell>
        <mxCell id="ZSmk_y_2do82O0z5rN5d-14" value="email" style="shape=partialRectangle;connectable=0;top=0;left=0;bottom=0;right=0;align=left;spacingLeft=2;overflow=hidden;fontSize=11;labelBackgroundColor=none;fillColor=#a0522d;strokeColor=#6D1F00;fontColor=#ffffff;" parent="ZSmk_y_2do82O0z5rN5d-12" vertex="1">
          <mxGeometry x="36" width="144" height="22" as="geometry">
            <mxRectangle width="144" height="22" as="alternateBounds" />
          </mxGeometry>
        </mxCell>
        <mxCell id="ZSmk_y_2do82O0z5rN5d-15" style="shape=tableRow;horizontal=0;startSize=0;swimlaneHead=0;swimlaneBody=0;collapsible=0;dropTarget=0;points=[[0,0.5],[1,0.5]];portConstraint=eastwest;top=0;left=0;right=0;bottom=0;labelBackgroundColor=none;fillColor=#a0522d;strokeColor=#6D1F00;fontColor=#ffffff;" parent="ZSmk_y_2do82O0z5rN5d-2" vertex="1">
          <mxGeometry y="118" width="180" height="22" as="geometry" />
        </mxCell>
        <mxCell id="ZSmk_y_2do82O0z5rN5d-16" value="string" style="shape=partialRectangle;connectable=0;top=0;left=0;bottom=0;right=0;align=left;spacingLeft=2;overflow=hidden;fontSize=11;labelBackgroundColor=none;fillColor=#a0522d;strokeColor=#6D1F00;fontColor=#ffffff;" parent="ZSmk_y_2do82O0z5rN5d-15" vertex="1">
          <mxGeometry width="36" height="22" as="geometry">
            <mxRectangle width="36" height="22" as="alternateBounds" />
          </mxGeometry>
        </mxCell>
        <mxCell id="ZSmk_y_2do82O0z5rN5d-17" value="phone" style="shape=partialRectangle;connectable=0;top=0;left=0;bottom=0;right=0;align=left;spacingLeft=2;overflow=hidden;fontSize=11;labelBackgroundColor=none;fillColor=#a0522d;strokeColor=#6D1F00;fontColor=#ffffff;" parent="ZSmk_y_2do82O0z5rN5d-15" vertex="1">
          <mxGeometry x="36" width="144" height="22" as="geometry">
            <mxRectangle width="144" height="22" as="alternateBounds" />
          </mxGeometry>
        </mxCell>
        <mxCell id="ZSmk_y_2do82O0z5rN5d-18" style="shape=tableRow;horizontal=0;startSize=0;swimlaneHead=0;swimlaneBody=0;collapsible=0;dropTarget=0;points=[[0,0.5],[1,0.5]];portConstraint=eastwest;top=0;left=0;right=0;bottom=0;labelBackgroundColor=none;fillColor=#a0522d;strokeColor=#6D1F00;fontColor=#ffffff;" parent="ZSmk_y_2do82O0z5rN5d-2" vertex="1">
          <mxGeometry y="140" width="180" height="22" as="geometry" />
        </mxCell>
        <mxCell id="ZSmk_y_2do82O0z5rN5d-19" value="string" style="shape=partialRectangle;connectable=0;top=0;left=0;bottom=0;right=0;align=left;spacingLeft=2;overflow=hidden;fontSize=11;labelBackgroundColor=none;fillColor=#a0522d;strokeColor=#6D1F00;fontColor=#ffffff;" parent="ZSmk_y_2do82O0z5rN5d-18" vertex="1">
          <mxGeometry width="36" height="22" as="geometry">
            <mxRectangle width="36" height="22" as="alternateBounds" />
          </mxGeometry>
        </mxCell>
        <mxCell id="ZSmk_y_2do82O0z5rN5d-20" value="address" style="shape=partialRectangle;connectable=0;top=0;left=0;bottom=0;right=0;align=left;spacingLeft=2;overflow=hidden;fontSize=11;labelBackgroundColor=none;fillColor=#a0522d;strokeColor=#6D1F00;fontColor=#ffffff;" parent="ZSmk_y_2do82O0z5rN5d-18" vertex="1">
          <mxGeometry x="36" width="144" height="22" as="geometry">
            <mxRectangle width="144" height="22" as="alternateBounds" />
          </mxGeometry>
        </mxCell>
        <mxCell id="ZSmk_y_2do82O0z5rN5d-21" value="PRODUCT" style="shape=table;startSize=25;container=1;collapsible=0;childLayout=tableLayout;fixedRows=1;rowLines=1;fontStyle=1;align=center;resizeLast=1;labelBackgroundColor=none;fillColor=#a0522d;strokeColor=#6D1F00;fontColor=#ffffff;" parent="1" vertex="1">
          <mxGeometry x="760" y="450" width="124" height="142" as="geometry" />
        </mxCell>
        <mxCell id="ZSmk_y_2do82O0z5rN5d-22" style="shape=tableRow;horizontal=0;startSize=0;swimlaneHead=0;swimlaneBody=0;collapsible=0;dropTarget=0;points=[[0,0.5],[1,0.5]];portConstraint=eastwest;top=0;left=0;right=0;bottom=0;labelBackgroundColor=none;fillColor=#a0522d;strokeColor=#6D1F00;fontColor=#ffffff;" parent="ZSmk_y_2do82O0z5rN5d-21" vertex="1">
          <mxGeometry y="25" width="124" height="22" as="geometry" />
        </mxCell>
        <mxCell id="ZSmk_y_2do82O0z5rN5d-23" value="string" style="shape=partialRectangle;connectable=0;top=0;left=0;bottom=0;right=0;align=left;spacingLeft=2;overflow=hidden;fontSize=11;labelBackgroundColor=none;fillColor=#a0522d;strokeColor=#6D1F00;fontColor=#ffffff;" parent="ZSmk_y_2do82O0z5rN5d-22" vertex="1">
          <mxGeometry width="50" height="22" as="geometry">
            <mxRectangle width="50" height="22" as="alternateBounds" />
          </mxGeometry>
        </mxCell>
        <mxCell id="ZSmk_y_2do82O0z5rN5d-24" value="product_id" style="shape=partialRectangle;connectable=0;top=0;left=0;bottom=0;right=0;align=left;spacingLeft=2;overflow=hidden;fontSize=11;labelBackgroundColor=none;fillColor=#a0522d;strokeColor=#6D1F00;fontColor=#ffffff;" parent="ZSmk_y_2do82O0z5rN5d-22" vertex="1">
          <mxGeometry x="50" width="74" height="22" as="geometry">
            <mxRectangle width="74" height="22" as="alternateBounds" />
          </mxGeometry>
        </mxCell>
        <mxCell id="ZSmk_y_2do82O0z5rN5d-25" style="shape=tableRow;horizontal=0;startSize=0;swimlaneHead=0;swimlaneBody=0;collapsible=0;dropTarget=0;points=[[0,0.5],[1,0.5]];portConstraint=eastwest;top=0;left=0;right=0;bottom=0;labelBackgroundColor=none;fillColor=#a0522d;strokeColor=#6D1F00;fontColor=#ffffff;" parent="ZSmk_y_2do82O0z5rN5d-21" vertex="1">
          <mxGeometry y="47" width="124" height="22" as="geometry" />
        </mxCell>
        <mxCell id="ZSmk_y_2do82O0z5rN5d-26" value="string" style="shape=partialRectangle;connectable=0;top=0;left=0;bottom=0;right=0;align=left;spacingLeft=2;overflow=hidden;fontSize=11;labelBackgroundColor=none;fillColor=#a0522d;strokeColor=#6D1F00;fontColor=#ffffff;" parent="ZSmk_y_2do82O0z5rN5d-25" vertex="1">
          <mxGeometry width="50" height="22" as="geometry">
            <mxRectangle width="50" height="22" as="alternateBounds" />
          </mxGeometry>
        </mxCell>
        <mxCell id="ZSmk_y_2do82O0z5rN5d-27" value="name" style="shape=partialRectangle;connectable=0;top=0;left=0;bottom=0;right=0;align=left;spacingLeft=2;overflow=hidden;fontSize=11;labelBackgroundColor=none;fillColor=#a0522d;strokeColor=#6D1F00;fontColor=#ffffff;" parent="ZSmk_y_2do82O0z5rN5d-25" vertex="1">
          <mxGeometry x="50" width="74" height="22" as="geometry">
            <mxRectangle width="74" height="22" as="alternateBounds" />
          </mxGeometry>
        </mxCell>
        <mxCell id="ZSmk_y_2do82O0z5rN5d-28" style="shape=tableRow;horizontal=0;startSize=0;swimlaneHead=0;swimlaneBody=0;collapsible=0;dropTarget=0;points=[[0,0.5],[1,0.5]];portConstraint=eastwest;top=0;left=0;right=0;bottom=0;labelBackgroundColor=none;fillColor=#a0522d;strokeColor=#6D1F00;fontColor=#ffffff;" parent="ZSmk_y_2do82O0z5rN5d-21" vertex="1">
          <mxGeometry y="69" width="124" height="22" as="geometry" />
        </mxCell>
        <mxCell id="ZSmk_y_2do82O0z5rN5d-29" value="string" style="shape=partialRectangle;connectable=0;top=0;left=0;bottom=0;right=0;align=left;spacingLeft=2;overflow=hidden;fontSize=11;labelBackgroundColor=none;fillColor=#a0522d;strokeColor=#6D1F00;fontColor=#ffffff;" parent="ZSmk_y_2do82O0z5rN5d-28" vertex="1">
          <mxGeometry width="50" height="22" as="geometry">
            <mxRectangle width="50" height="22" as="alternateBounds" />
          </mxGeometry>
        </mxCell>
        <mxCell id="ZSmk_y_2do82O0z5rN5d-30" value="category" style="shape=partialRectangle;connectable=0;top=0;left=0;bottom=0;right=0;align=left;spacingLeft=2;overflow=hidden;fontSize=11;labelBackgroundColor=none;fillColor=#a0522d;strokeColor=#6D1F00;fontColor=#ffffff;" parent="ZSmk_y_2do82O0z5rN5d-28" vertex="1">
          <mxGeometry x="50" width="74" height="22" as="geometry">
            <mxRectangle width="74" height="22" as="alternateBounds" />
          </mxGeometry>
        </mxCell>
        <mxCell id="ZSmk_y_2do82O0z5rN5d-31" style="shape=tableRow;horizontal=0;startSize=0;swimlaneHead=0;swimlaneBody=0;collapsible=0;dropTarget=0;points=[[0,0.5],[1,0.5]];portConstraint=eastwest;top=0;left=0;right=0;bottom=0;labelBackgroundColor=none;fillColor=#a0522d;strokeColor=#6D1F00;fontColor=#ffffff;" parent="ZSmk_y_2do82O0z5rN5d-21" vertex="1">
          <mxGeometry y="91" width="124" height="29" as="geometry" />
        </mxCell>
        <mxCell id="ZSmk_y_2do82O0z5rN5d-32" value="float" style="shape=partialRectangle;connectable=0;top=0;left=0;bottom=0;right=0;align=left;spacingLeft=2;overflow=hidden;fontSize=11;labelBackgroundColor=none;fillColor=#a0522d;strokeColor=#6D1F00;fontColor=#ffffff;" parent="ZSmk_y_2do82O0z5rN5d-31" vertex="1">
          <mxGeometry width="50" height="29" as="geometry">
            <mxRectangle width="50" height="29" as="alternateBounds" />
          </mxGeometry>
        </mxCell>
        <mxCell id="ZSmk_y_2do82O0z5rN5d-33" value="price" style="shape=partialRectangle;connectable=0;top=0;left=0;bottom=0;right=0;align=left;spacingLeft=2;overflow=hidden;fontSize=11;labelBackgroundColor=none;fillColor=#a0522d;strokeColor=#6D1F00;fontColor=#ffffff;" parent="ZSmk_y_2do82O0z5rN5d-31" vertex="1">
          <mxGeometry x="50" width="74" height="29" as="geometry">
            <mxRectangle width="74" height="29" as="alternateBounds" />
          </mxGeometry>
        </mxCell>
        <mxCell id="ZSmk_y_2do82O0z5rN5d-34" style="shape=tableRow;horizontal=0;startSize=0;swimlaneHead=0;swimlaneBody=0;collapsible=0;dropTarget=0;points=[[0,0.5],[1,0.5]];portConstraint=eastwest;top=0;left=0;right=0;bottom=0;labelBackgroundColor=none;fillColor=#a0522d;strokeColor=#6D1F00;fontColor=#ffffff;" parent="ZSmk_y_2do82O0z5rN5d-21" vertex="1">
          <mxGeometry y="120" width="124" height="22" as="geometry" />
        </mxCell>
        <mxCell id="ZSmk_y_2do82O0z5rN5d-35" value="int" style="shape=partialRectangle;connectable=0;top=0;left=0;bottom=0;right=0;align=left;spacingLeft=2;overflow=hidden;fontSize=11;labelBackgroundColor=none;fillColor=#a0522d;strokeColor=#6D1F00;fontColor=#ffffff;" parent="ZSmk_y_2do82O0z5rN5d-34" vertex="1">
          <mxGeometry width="50" height="22" as="geometry">
            <mxRectangle width="50" height="22" as="alternateBounds" />
          </mxGeometry>
        </mxCell>
        <mxCell id="ZSmk_y_2do82O0z5rN5d-36" value="stock_quantity" style="shape=partialRectangle;connectable=0;top=0;left=0;bottom=0;right=0;align=left;spacingLeft=2;overflow=hidden;fontSize=11;labelBackgroundColor=none;fillColor=#a0522d;strokeColor=#6D1F00;fontColor=#ffffff;" parent="ZSmk_y_2do82O0z5rN5d-34" vertex="1">
          <mxGeometry x="50" width="74" height="22" as="geometry">
            <mxRectangle width="74" height="22" as="alternateBounds" />
          </mxGeometry>
        </mxCell>
        <mxCell id="ZSmk_y_2do82O0z5rN5d-37" value="ORDER" style="shape=table;startSize=25;container=1;collapsible=0;childLayout=tableLayout;fixedRows=1;rowLines=1;fontStyle=1;align=center;resizeLast=1;labelBackgroundColor=none;fillColor=#a0522d;strokeColor=#6D1F00;fontColor=#ffffff;" parent="1" vertex="1">
          <mxGeometry x="420" y="645" width="106" height="91" as="geometry" />
        </mxCell>
        <mxCell id="ZSmk_y_2do82O0z5rN5d-38" style="shape=tableRow;horizontal=0;startSize=0;swimlaneHead=0;swimlaneBody=0;collapsible=0;dropTarget=0;points=[[0,0.5],[1,0.5]];portConstraint=eastwest;top=0;left=0;right=0;bottom=0;labelBackgroundColor=none;fillColor=#a0522d;strokeColor=#6D1F00;fontColor=#ffffff;" parent="ZSmk_y_2do82O0z5rN5d-37" vertex="1">
          <mxGeometry y="25" width="106" height="22" as="geometry" />
        </mxCell>
        <mxCell id="ZSmk_y_2do82O0z5rN5d-39" value="string" style="shape=partialRectangle;connectable=0;top=0;left=0;bottom=0;right=0;align=left;spacingLeft=2;overflow=hidden;fontSize=11;labelBackgroundColor=none;fillColor=#a0522d;strokeColor=#6D1F00;fontColor=#ffffff;" parent="ZSmk_y_2do82O0z5rN5d-38" vertex="1">
          <mxGeometry width="36" height="22" as="geometry">
            <mxRectangle width="36" height="22" as="alternateBounds" />
          </mxGeometry>
        </mxCell>
        <mxCell id="ZSmk_y_2do82O0z5rN5d-40" value="order_id" style="shape=partialRectangle;connectable=0;top=0;left=0;bottom=0;right=0;align=left;spacingLeft=2;overflow=hidden;fontSize=11;labelBackgroundColor=none;fillColor=#a0522d;strokeColor=#6D1F00;fontColor=#ffffff;" parent="ZSmk_y_2do82O0z5rN5d-38" vertex="1">
          <mxGeometry x="36" width="70" height="22" as="geometry">
            <mxRectangle width="70" height="22" as="alternateBounds" />
          </mxGeometry>
        </mxCell>
        <mxCell id="ZSmk_y_2do82O0z5rN5d-41" style="shape=tableRow;horizontal=0;startSize=0;swimlaneHead=0;swimlaneBody=0;collapsible=0;dropTarget=0;points=[[0,0.5],[1,0.5]];portConstraint=eastwest;top=0;left=0;right=0;bottom=0;labelBackgroundColor=none;fillColor=#a0522d;strokeColor=#6D1F00;fontColor=#ffffff;" parent="ZSmk_y_2do82O0z5rN5d-37" vertex="1">
          <mxGeometry y="47" width="106" height="22" as="geometry" />
        </mxCell>
        <mxCell id="ZSmk_y_2do82O0z5rN5d-42" value="date" style="shape=partialRectangle;connectable=0;top=0;left=0;bottom=0;right=0;align=left;spacingLeft=2;overflow=hidden;fontSize=11;labelBackgroundColor=none;fillColor=#a0522d;strokeColor=#6D1F00;fontColor=#ffffff;" parent="ZSmk_y_2do82O0z5rN5d-41" vertex="1">
          <mxGeometry width="36" height="22" as="geometry">
            <mxRectangle width="36" height="22" as="alternateBounds" />
          </mxGeometry>
        </mxCell>
        <mxCell id="ZSmk_y_2do82O0z5rN5d-43" value="order_date" style="shape=partialRectangle;connectable=0;top=0;left=0;bottom=0;right=0;align=left;spacingLeft=2;overflow=hidden;fontSize=11;labelBackgroundColor=none;fillColor=#a0522d;strokeColor=#6D1F00;fontColor=#ffffff;" parent="ZSmk_y_2do82O0z5rN5d-41" vertex="1">
          <mxGeometry x="36" width="70" height="22" as="geometry">
            <mxRectangle width="70" height="22" as="alternateBounds" />
          </mxGeometry>
        </mxCell>
        <mxCell id="ZSmk_y_2do82O0z5rN5d-44" style="shape=tableRow;horizontal=0;startSize=0;swimlaneHead=0;swimlaneBody=0;collapsible=0;dropTarget=0;points=[[0,0.5],[1,0.5]];portConstraint=eastwest;top=0;left=0;right=0;bottom=0;labelBackgroundColor=none;fillColor=#a0522d;strokeColor=#6D1F00;fontColor=#ffffff;" parent="ZSmk_y_2do82O0z5rN5d-37" vertex="1">
          <mxGeometry y="69" width="106" height="22" as="geometry" />
        </mxCell>
        <mxCell id="ZSmk_y_2do82O0z5rN5d-45" value="string" style="shape=partialRectangle;connectable=0;top=0;left=0;bottom=0;right=0;align=left;spacingLeft=2;overflow=hidden;fontSize=11;labelBackgroundColor=none;fillColor=#a0522d;strokeColor=#6D1F00;fontColor=#ffffff;" parent="ZSmk_y_2do82O0z5rN5d-44" vertex="1">
          <mxGeometry width="36" height="22" as="geometry">
            <mxRectangle width="36" height="22" as="alternateBounds" />
          </mxGeometry>
        </mxCell>
        <mxCell id="ZSmk_y_2do82O0z5rN5d-46" value="customer_id" style="shape=partialRectangle;connectable=0;top=0;left=0;bottom=0;right=0;align=left;spacingLeft=2;overflow=hidden;fontSize=11;labelBackgroundColor=none;fillColor=#a0522d;strokeColor=#6D1F00;fontColor=#ffffff;" parent="ZSmk_y_2do82O0z5rN5d-44" vertex="1">
          <mxGeometry x="36" width="70" height="22" as="geometry">
            <mxRectangle width="70" height="22" as="alternateBounds" />
          </mxGeometry>
        </mxCell>
        <mxCell id="ZSmk_y_2do82O0z5rN5d-47" value="ORDER_LINE" style="shape=table;startSize=25;container=1;collapsible=0;childLayout=tableLayout;fixedRows=1;rowLines=1;fontStyle=1;align=center;resizeLast=1;labelBackgroundColor=none;fillColor=#a0522d;strokeColor=#6D1F00;fontColor=#ffffff;" parent="1" vertex="1">
          <mxGeometry x="771.5" y="790" width="101" height="91" as="geometry" />
        </mxCell>
        <mxCell id="ZSmk_y_2do82O0z5rN5d-48" style="shape=tableRow;horizontal=0;startSize=0;swimlaneHead=0;swimlaneBody=0;collapsible=0;dropTarget=0;points=[[0,0.5],[1,0.5]];portConstraint=eastwest;top=0;left=0;right=0;bottom=0;labelBackgroundColor=none;fillColor=#a0522d;strokeColor=#6D1F00;fontColor=#ffffff;" parent="ZSmk_y_2do82O0z5rN5d-47" vertex="1">
          <mxGeometry y="25" width="101" height="22" as="geometry" />
        </mxCell>
        <mxCell id="ZSmk_y_2do82O0z5rN5d-49" value="string" style="shape=partialRectangle;connectable=0;top=0;left=0;bottom=0;right=0;align=left;spacingLeft=2;overflow=hidden;fontSize=11;labelBackgroundColor=none;fillColor=#a0522d;strokeColor=#6D1F00;fontColor=#ffffff;" parent="ZSmk_y_2do82O0z5rN5d-48" vertex="1">
          <mxGeometry width="36" height="22" as="geometry">
            <mxRectangle width="36" height="22" as="alternateBounds" />
          </mxGeometry>
        </mxCell>
        <mxCell id="ZSmk_y_2do82O0z5rN5d-50" value="order_id" style="shape=partialRectangle;connectable=0;top=0;left=0;bottom=0;right=0;align=left;spacingLeft=2;overflow=hidden;fontSize=11;labelBackgroundColor=none;fillColor=#a0522d;strokeColor=#6D1F00;fontColor=#ffffff;" parent="ZSmk_y_2do82O0z5rN5d-48" vertex="1">
          <mxGeometry x="36" width="65" height="22" as="geometry">
            <mxRectangle width="65" height="22" as="alternateBounds" />
          </mxGeometry>
        </mxCell>
        <mxCell id="ZSmk_y_2do82O0z5rN5d-51" style="shape=tableRow;horizontal=0;startSize=0;swimlaneHead=0;swimlaneBody=0;collapsible=0;dropTarget=0;points=[[0,0.5],[1,0.5]];portConstraint=eastwest;top=0;left=0;right=0;bottom=0;labelBackgroundColor=none;fillColor=#a0522d;strokeColor=#6D1F00;fontColor=#ffffff;" parent="ZSmk_y_2do82O0z5rN5d-47" vertex="1">
          <mxGeometry y="47" width="101" height="22" as="geometry" />
        </mxCell>
        <mxCell id="ZSmk_y_2do82O0z5rN5d-52" value="string" style="shape=partialRectangle;connectable=0;top=0;left=0;bottom=0;right=0;align=left;spacingLeft=2;overflow=hidden;fontSize=11;labelBackgroundColor=none;fillColor=#a0522d;strokeColor=#6D1F00;fontColor=#ffffff;" parent="ZSmk_y_2do82O0z5rN5d-51" vertex="1">
          <mxGeometry width="36" height="22" as="geometry">
            <mxRectangle width="36" height="22" as="alternateBounds" />
          </mxGeometry>
        </mxCell>
        <mxCell id="ZSmk_y_2do82O0z5rN5d-53" value="product_id" style="shape=partialRectangle;connectable=0;top=0;left=0;bottom=0;right=0;align=left;spacingLeft=2;overflow=hidden;fontSize=11;labelBackgroundColor=none;fillColor=#a0522d;strokeColor=#6D1F00;fontColor=#ffffff;" parent="ZSmk_y_2do82O0z5rN5d-51" vertex="1">
          <mxGeometry x="36" width="65" height="22" as="geometry">
            <mxRectangle width="65" height="22" as="alternateBounds" />
          </mxGeometry>
        </mxCell>
        <mxCell id="ZSmk_y_2do82O0z5rN5d-54" style="shape=tableRow;horizontal=0;startSize=0;swimlaneHead=0;swimlaneBody=0;collapsible=0;dropTarget=0;points=[[0,0.5],[1,0.5]];portConstraint=eastwest;top=0;left=0;right=0;bottom=0;labelBackgroundColor=none;fillColor=#a0522d;strokeColor=#6D1F00;fontColor=#ffffff;" parent="ZSmk_y_2do82O0z5rN5d-47" vertex="1">
          <mxGeometry y="69" width="101" height="22" as="geometry" />
        </mxCell>
        <mxCell id="ZSmk_y_2do82O0z5rN5d-55" value="int" style="shape=partialRectangle;connectable=0;top=0;left=0;bottom=0;right=0;align=left;spacingLeft=2;overflow=hidden;fontSize=11;labelBackgroundColor=none;fillColor=#a0522d;strokeColor=#6D1F00;fontColor=#ffffff;" parent="ZSmk_y_2do82O0z5rN5d-54" vertex="1">
          <mxGeometry width="36" height="22" as="geometry">
            <mxRectangle width="36" height="22" as="alternateBounds" />
          </mxGeometry>
        </mxCell>
        <mxCell id="ZSmk_y_2do82O0z5rN5d-56" value="quantity" style="shape=partialRectangle;connectable=0;top=0;left=0;bottom=0;right=0;align=left;spacingLeft=2;overflow=hidden;fontSize=11;labelBackgroundColor=none;fillColor=#a0522d;strokeColor=#6D1F00;fontColor=#ffffff;" parent="ZSmk_y_2do82O0z5rN5d-54" vertex="1">
          <mxGeometry x="36" width="65" height="22" as="geometry">
            <mxRectangle width="65" height="22" as="alternateBounds" />
          </mxGeometry>
        </mxCell>
        <mxCell id="ZSmk_y_2do82O0z5rN5d-57" value="places" style="curved=1;startArrow=ERmandOne;startSize=10;;endArrow=ERmandOne;endSize=10;;exitX=0.75;exitY=1;exitDx=0;exitDy=0;labelBackgroundColor=none;fontColor=default;fillColor=#a0522d;strokeColor=#6D1F00;" parent="1" source="ZSmk_y_2do82O0z5rN5d-2" target="ZSmk_y_2do82O0z5rN5d-38" edge="1">
          <mxGeometry relative="1" as="geometry">
            <Array as="points" />
            <mxPoint x="857" y="550" as="sourcePoint" />
            <mxPoint x="820" y="668" as="targetPoint" />
          </mxGeometry>
        </mxCell>
        <mxCell id="ZSmk_y_2do82O0z5rN5d-58" value="contains" style="curved=1;startArrow=ERmandOne;startSize=10;;endArrow=ERzeroToOne;endSize=10;;exitX=0.5;exitY=0.99;labelBackgroundColor=none;fontColor=default;fillColor=#a0522d;strokeColor=#6D1F00;entryX=0.303;entryY=0.223;entryDx=0;entryDy=0;entryPerimeter=0;" parent="1" source="ZSmk_y_2do82O0z5rN5d-37" target="ZSmk_y_2do82O0z5rN5d-48" edge="1">
          <mxGeometry x="0.0219" y="-8" relative="1" as="geometry">
            <Array as="points">
              <mxPoint x="500" y="780" />
              <mxPoint x="530" y="810" />
              <mxPoint x="570" y="830" />
              <mxPoint x="670" y="850" />
              <mxPoint x="750" y="870" />
            </Array>
            <mxPoint as="offset" />
          </mxGeometry>
        </mxCell>
        <mxCell id="ZSmk_y_2do82O0z5rN5d-59" value="includes" style="curved=1;startArrow=ERmandOne;startSize=10;;endArrow=ERzeroToOne;endSize=10;;exitX=0.48;exitY=0.99;entryX=1;entryY=0;labelBackgroundColor=none;fontColor=default;fillColor=#a0522d;strokeColor=#6D1F00;" parent="1" source="ZSmk_y_2do82O0z5rN5d-21" target="ZSmk_y_2do82O0z5rN5d-47" edge="1">
          <mxGeometry x="-0.4864" y="-20" relative="1" as="geometry">
            <Array as="points">
              <mxPoint x="770" y="730" />
            </Array>
            <mxPoint as="offset" />
          </mxGeometry>
        </mxCell>
        <mxCell id="ZSmk_y_2do82O0z5rN5d-60" value="Sales" style="shape=table;startSize=20;container=1;collapsible=0;childLayout=tableLayout;labelBackgroundColor=none;fillColor=#f5f5f5;strokeColor=#666666;gradientColor=#b3b3b3;" parent="1" vertex="1">
          <mxGeometry x="2780" y="380" width="250" height="230" as="geometry" />
        </mxCell>
        <mxCell id="ZSmk_y_2do82O0z5rN5d-61" value="" style="shape=tableRow;horizontal=0;startSize=0;swimlaneHead=0;swimlaneBody=0;top=0;left=0;bottom=0;right=0;collapsible=0;dropTarget=0;fillColor=#f5f5f5;points=[[0,0.5],[1,0.5]];portConstraint=eastwest;labelBackgroundColor=none;strokeColor=#666666;gradientColor=#b3b3b3;" parent="ZSmk_y_2do82O0z5rN5d-60" vertex="1">
          <mxGeometry y="20" width="250" height="42" as="geometry" />
        </mxCell>
        <mxCell id="ZSmk_y_2do82O0z5rN5d-62" value="" style="shape=partialRectangle;html=1;whiteSpace=wrap;connectable=0;overflow=hidden;fillColor=#f5f5f5;top=0;left=0;bottom=0;right=0;pointerEvents=1;labelBackgroundColor=none;strokeColor=#666666;gradientColor=#b3b3b3;" parent="ZSmk_y_2do82O0z5rN5d-61" vertex="1">
          <mxGeometry width="60" height="42" as="geometry">
            <mxRectangle width="60" height="42" as="alternateBounds" />
          </mxGeometry>
        </mxCell>
        <mxCell id="ZSmk_y_2do82O0z5rN5d-63" value="Units_sold" style="shape=partialRectangle;html=1;whiteSpace=wrap;connectable=0;overflow=hidden;fillColor=#f5f5f5;top=0;left=0;bottom=0;right=0;pointerEvents=1;labelBackgroundColor=none;strokeColor=#666666;gradientColor=#b3b3b3;" parent="ZSmk_y_2do82O0z5rN5d-61" vertex="1">
          <mxGeometry x="60" width="190" height="42" as="geometry">
            <mxRectangle width="190" height="42" as="alternateBounds" />
          </mxGeometry>
        </mxCell>
        <mxCell id="ZSmk_y_2do82O0z5rN5d-64" value="" style="shape=tableRow;horizontal=0;startSize=0;swimlaneHead=0;swimlaneBody=0;top=0;left=0;bottom=0;right=0;collapsible=0;dropTarget=0;fillColor=#f5f5f5;points=[[0,0.5],[1,0.5]];portConstraint=eastwest;labelBackgroundColor=none;strokeColor=#666666;gradientColor=#b3b3b3;" parent="ZSmk_y_2do82O0z5rN5d-60" vertex="1">
          <mxGeometry y="62" width="250" height="42" as="geometry" />
        </mxCell>
        <mxCell id="ZSmk_y_2do82O0z5rN5d-65" value="" style="shape=partialRectangle;html=1;whiteSpace=wrap;connectable=0;overflow=hidden;fillColor=#f5f5f5;top=0;left=0;bottom=0;right=0;pointerEvents=1;labelBackgroundColor=none;strokeColor=#666666;gradientColor=#b3b3b3;" parent="ZSmk_y_2do82O0z5rN5d-64" vertex="1">
          <mxGeometry width="60" height="42" as="geometry">
            <mxRectangle width="60" height="42" as="alternateBounds" />
          </mxGeometry>
        </mxCell>
        <mxCell id="ZSmk_y_2do82O0z5rN5d-66" value="Income_made" style="shape=partialRectangle;html=1;whiteSpace=wrap;connectable=0;overflow=hidden;fillColor=#f5f5f5;top=0;left=0;bottom=0;right=0;pointerEvents=1;labelBackgroundColor=none;strokeColor=#666666;gradientColor=#b3b3b3;" parent="ZSmk_y_2do82O0z5rN5d-64" vertex="1">
          <mxGeometry x="60" width="190" height="42" as="geometry">
            <mxRectangle width="190" height="42" as="alternateBounds" />
          </mxGeometry>
        </mxCell>
        <mxCell id="ZSmk_y_2do82O0z5rN5d-67" value="" style="shape=tableRow;horizontal=0;startSize=0;swimlaneHead=0;swimlaneBody=0;top=0;left=0;bottom=0;right=0;collapsible=0;dropTarget=0;fillColor=#f5f5f5;points=[[0,0.5],[1,0.5]];portConstraint=eastwest;labelBackgroundColor=none;strokeColor=#666666;gradientColor=#b3b3b3;" parent="ZSmk_y_2do82O0z5rN5d-60" vertex="1">
          <mxGeometry y="104" width="250" height="42" as="geometry" />
        </mxCell>
        <mxCell id="ZSmk_y_2do82O0z5rN5d-68" value="" style="shape=partialRectangle;html=1;whiteSpace=wrap;connectable=0;overflow=hidden;fillColor=#f5f5f5;top=0;left=0;bottom=0;right=0;pointerEvents=1;labelBackgroundColor=none;strokeColor=#666666;gradientColor=#b3b3b3;" parent="ZSmk_y_2do82O0z5rN5d-67" vertex="1">
          <mxGeometry width="60" height="42" as="geometry">
            <mxRectangle width="60" height="42" as="alternateBounds" />
          </mxGeometry>
        </mxCell>
        <mxCell id="ZSmk_y_2do82O0z5rN5d-69" value="Total_sales" style="shape=partialRectangle;html=1;whiteSpace=wrap;connectable=0;overflow=hidden;fillColor=#f5f5f5;top=0;left=0;bottom=0;right=0;pointerEvents=1;labelBackgroundColor=none;strokeColor=#666666;gradientColor=#b3b3b3;" parent="ZSmk_y_2do82O0z5rN5d-67" vertex="1">
          <mxGeometry x="60" width="190" height="42" as="geometry">
            <mxRectangle width="190" height="42" as="alternateBounds" />
          </mxGeometry>
        </mxCell>
        <mxCell id="ZSmk_y_2do82O0z5rN5d-70" value="" style="shape=tableRow;horizontal=0;startSize=0;swimlaneHead=0;swimlaneBody=0;top=0;left=0;bottom=0;right=0;collapsible=0;dropTarget=0;fillColor=#f5f5f5;points=[[0,0.5],[1,0.5]];portConstraint=eastwest;labelBackgroundColor=none;strokeColor=#666666;gradientColor=#b3b3b3;" parent="ZSmk_y_2do82O0z5rN5d-60" vertex="1">
          <mxGeometry y="146" width="250" height="42" as="geometry" />
        </mxCell>
        <mxCell id="ZSmk_y_2do82O0z5rN5d-71" value="" style="shape=partialRectangle;html=1;whiteSpace=wrap;connectable=0;overflow=hidden;fillColor=#f5f5f5;top=0;left=0;bottom=0;right=0;pointerEvents=1;labelBackgroundColor=none;strokeColor=#666666;gradientColor=#b3b3b3;" parent="ZSmk_y_2do82O0z5rN5d-70" vertex="1">
          <mxGeometry width="60" height="42" as="geometry">
            <mxRectangle width="60" height="42" as="alternateBounds" />
          </mxGeometry>
        </mxCell>
        <mxCell id="ZSmk_y_2do82O0z5rN5d-72" value="Total_items_purchased" style="shape=partialRectangle;html=1;whiteSpace=wrap;connectable=0;overflow=hidden;fillColor=#f5f5f5;top=0;left=0;bottom=0;right=0;pointerEvents=1;labelBackgroundColor=none;strokeColor=#666666;gradientColor=#b3b3b3;" parent="ZSmk_y_2do82O0z5rN5d-70" vertex="1">
          <mxGeometry x="60" width="190" height="42" as="geometry">
            <mxRectangle width="190" height="42" as="alternateBounds" />
          </mxGeometry>
        </mxCell>
        <mxCell id="ZSmk_y_2do82O0z5rN5d-73" value="" style="shape=tableRow;horizontal=0;startSize=0;swimlaneHead=0;swimlaneBody=0;top=0;left=0;bottom=0;right=0;collapsible=0;dropTarget=0;fillColor=#f5f5f5;points=[[0,0.5],[1,0.5]];portConstraint=eastwest;labelBackgroundColor=none;strokeColor=#666666;gradientColor=#b3b3b3;" parent="ZSmk_y_2do82O0z5rN5d-60" vertex="1">
          <mxGeometry y="188" width="250" height="42" as="geometry" />
        </mxCell>
        <mxCell id="ZSmk_y_2do82O0z5rN5d-74" value="" style="shape=partialRectangle;html=1;whiteSpace=wrap;connectable=0;overflow=hidden;fillColor=#f5f5f5;top=0;left=0;bottom=0;right=0;pointerEvents=1;labelBackgroundColor=none;strokeColor=#666666;gradientColor=#b3b3b3;" parent="ZSmk_y_2do82O0z5rN5d-73" vertex="1">
          <mxGeometry width="60" height="42" as="geometry">
            <mxRectangle width="60" height="42" as="alternateBounds" />
          </mxGeometry>
        </mxCell>
        <mxCell id="ZSmk_y_2do82O0z5rN5d-75" value="Income_per_store" style="shape=partialRectangle;html=1;whiteSpace=wrap;connectable=0;overflow=hidden;fillColor=#f5f5f5;top=0;left=0;bottom=0;right=0;pointerEvents=1;labelBackgroundColor=none;strokeColor=#666666;gradientColor=#b3b3b3;" parent="ZSmk_y_2do82O0z5rN5d-73" vertex="1">
          <mxGeometry x="60" width="190" height="42" as="geometry">
            <mxRectangle width="190" height="42" as="alternateBounds" />
          </mxGeometry>
        </mxCell>
        <mxCell id="ZSmk_y_2do82O0z5rN5d-76" value="Inventory" style="shape=table;startSize=30;container=1;collapsible=0;childLayout=tableLayout;labelBackgroundColor=none;fillColor=#f5f5f5;strokeColor=#666666;gradientColor=#b3b3b3;" parent="1" vertex="1">
          <mxGeometry x="2950" y="700" width="310" height="230" as="geometry" />
        </mxCell>
        <mxCell id="ZSmk_y_2do82O0z5rN5d-77" value="" style="shape=tableRow;horizontal=0;startSize=0;swimlaneHead=0;swimlaneBody=0;top=0;left=0;bottom=0;right=0;collapsible=0;dropTarget=0;fillColor=#f5f5f5;points=[[0,0.5],[1,0.5]];portConstraint=eastwest;labelBackgroundColor=none;strokeColor=#666666;gradientColor=#b3b3b3;" parent="ZSmk_y_2do82O0z5rN5d-76" vertex="1">
          <mxGeometry y="30" width="310" height="40" as="geometry" />
        </mxCell>
        <mxCell id="ZSmk_y_2do82O0z5rN5d-78" value="" style="shape=partialRectangle;html=1;whiteSpace=wrap;connectable=0;overflow=hidden;fillColor=#f5f5f5;top=0;left=0;bottom=0;right=0;pointerEvents=1;labelBackgroundColor=none;strokeColor=#666666;gradientColor=#b3b3b3;" parent="ZSmk_y_2do82O0z5rN5d-77" vertex="1">
          <mxGeometry width="55" height="40" as="geometry">
            <mxRectangle width="55" height="40" as="alternateBounds" />
          </mxGeometry>
        </mxCell>
        <mxCell id="ZSmk_y_2do82O0z5rN5d-79" value="Stock_contained" style="shape=partialRectangle;html=1;whiteSpace=wrap;connectable=0;overflow=hidden;fillColor=#f5f5f5;top=0;left=0;bottom=0;right=0;pointerEvents=1;labelBackgroundColor=none;strokeColor=#666666;gradientColor=#b3b3b3;" parent="ZSmk_y_2do82O0z5rN5d-77" vertex="1">
          <mxGeometry x="55" width="255" height="40" as="geometry">
            <mxRectangle width="255" height="40" as="alternateBounds" />
          </mxGeometry>
        </mxCell>
        <mxCell id="ZSmk_y_2do82O0z5rN5d-80" value="" style="shape=tableRow;horizontal=0;startSize=0;swimlaneHead=0;swimlaneBody=0;top=0;left=0;bottom=0;right=0;collapsible=0;dropTarget=0;fillColor=#f5f5f5;points=[[0,0.5],[1,0.5]];portConstraint=eastwest;labelBackgroundColor=none;strokeColor=#666666;gradientColor=#b3b3b3;" parent="ZSmk_y_2do82O0z5rN5d-76" vertex="1">
          <mxGeometry y="70" width="310" height="40" as="geometry" />
        </mxCell>
        <mxCell id="ZSmk_y_2do82O0z5rN5d-81" value="" style="shape=partialRectangle;html=1;whiteSpace=wrap;connectable=0;overflow=hidden;fillColor=#f5f5f5;top=0;left=0;bottom=0;right=0;pointerEvents=1;labelBackgroundColor=none;strokeColor=#666666;gradientColor=#b3b3b3;" parent="ZSmk_y_2do82O0z5rN5d-80" vertex="1">
          <mxGeometry width="55" height="40" as="geometry">
            <mxRectangle width="55" height="40" as="alternateBounds" />
          </mxGeometry>
        </mxCell>
        <mxCell id="ZSmk_y_2do82O0z5rN5d-82" value="Stock_ordered" style="shape=partialRectangle;html=1;whiteSpace=wrap;connectable=0;overflow=hidden;fillColor=#f5f5f5;top=0;left=0;bottom=0;right=0;pointerEvents=1;labelBackgroundColor=none;strokeColor=#666666;gradientColor=#b3b3b3;" parent="ZSmk_y_2do82O0z5rN5d-80" vertex="1">
          <mxGeometry x="55" width="255" height="40" as="geometry">
            <mxRectangle width="255" height="40" as="alternateBounds" />
          </mxGeometry>
        </mxCell>
        <mxCell id="ZSmk_y_2do82O0z5rN5d-83" value="" style="shape=tableRow;horizontal=0;startSize=0;swimlaneHead=0;swimlaneBody=0;top=0;left=0;bottom=0;right=0;collapsible=0;dropTarget=0;fillColor=#f5f5f5;points=[[0,0.5],[1,0.5]];portConstraint=eastwest;labelBackgroundColor=none;strokeColor=#666666;gradientColor=#b3b3b3;" parent="ZSmk_y_2do82O0z5rN5d-76" vertex="1">
          <mxGeometry y="110" width="310" height="40" as="geometry" />
        </mxCell>
        <mxCell id="ZSmk_y_2do82O0z5rN5d-84" value="" style="shape=partialRectangle;html=1;whiteSpace=wrap;connectable=0;overflow=hidden;fillColor=#f5f5f5;top=0;left=0;bottom=0;right=0;pointerEvents=1;labelBackgroundColor=none;strokeColor=#666666;gradientColor=#b3b3b3;" parent="ZSmk_y_2do82O0z5rN5d-83" vertex="1">
          <mxGeometry width="55" height="40" as="geometry">
            <mxRectangle width="55" height="40" as="alternateBounds" />
          </mxGeometry>
        </mxCell>
        <mxCell id="ZSmk_y_2do82O0z5rN5d-85" value="Stock_sold" style="shape=partialRectangle;html=1;whiteSpace=wrap;connectable=0;overflow=hidden;fillColor=#f5f5f5;top=0;left=0;bottom=0;right=0;pointerEvents=1;labelBackgroundColor=none;strokeColor=#666666;gradientColor=#b3b3b3;" parent="ZSmk_y_2do82O0z5rN5d-83" vertex="1">
          <mxGeometry x="55" width="255" height="40" as="geometry">
            <mxRectangle width="255" height="40" as="alternateBounds" />
          </mxGeometry>
        </mxCell>
        <mxCell id="ZSmk_y_2do82O0z5rN5d-86" value="" style="shape=tableRow;horizontal=0;startSize=0;swimlaneHead=0;swimlaneBody=0;top=0;left=0;bottom=0;right=0;collapsible=0;dropTarget=0;fillColor=#f5f5f5;points=[[0,0.5],[1,0.5]];portConstraint=eastwest;labelBackgroundColor=none;strokeColor=#666666;gradientColor=#b3b3b3;" parent="ZSmk_y_2do82O0z5rN5d-76" vertex="1">
          <mxGeometry y="150" width="310" height="40" as="geometry" />
        </mxCell>
        <mxCell id="ZSmk_y_2do82O0z5rN5d-87" value="" style="shape=partialRectangle;html=1;whiteSpace=wrap;connectable=0;overflow=hidden;fillColor=#f5f5f5;top=0;left=0;bottom=0;right=0;pointerEvents=1;labelBackgroundColor=none;strokeColor=#666666;gradientColor=#b3b3b3;" parent="ZSmk_y_2do82O0z5rN5d-86" vertex="1">
          <mxGeometry width="55" height="40" as="geometry">
            <mxRectangle width="55" height="40" as="alternateBounds" />
          </mxGeometry>
        </mxCell>
        <mxCell id="ZSmk_y_2do82O0z5rN5d-88" value="Inventory_turnover" style="shape=partialRectangle;html=1;whiteSpace=wrap;connectable=0;overflow=hidden;fillColor=#f5f5f5;top=0;left=0;bottom=0;right=0;pointerEvents=1;labelBackgroundColor=none;strokeColor=#666666;gradientColor=#b3b3b3;" parent="ZSmk_y_2do82O0z5rN5d-86" vertex="1">
          <mxGeometry x="55" width="255" height="40" as="geometry">
            <mxRectangle width="255" height="40" as="alternateBounds" />
          </mxGeometry>
        </mxCell>
        <mxCell id="ZSmk_y_2do82O0z5rN5d-89" value="" style="shape=tableRow;horizontal=0;startSize=0;swimlaneHead=0;swimlaneBody=0;top=0;left=0;bottom=0;right=0;collapsible=0;dropTarget=0;fillColor=#f5f5f5;points=[[0,0.5],[1,0.5]];portConstraint=eastwest;labelBackgroundColor=none;strokeColor=#666666;gradientColor=#b3b3b3;" parent="ZSmk_y_2do82O0z5rN5d-76" vertex="1">
          <mxGeometry y="190" width="310" height="40" as="geometry" />
        </mxCell>
        <mxCell id="ZSmk_y_2do82O0z5rN5d-90" value="" style="shape=partialRectangle;html=1;whiteSpace=wrap;connectable=0;overflow=hidden;fillColor=#f5f5f5;top=0;left=0;bottom=0;right=0;pointerEvents=1;labelBackgroundColor=none;strokeColor=#666666;gradientColor=#b3b3b3;" parent="ZSmk_y_2do82O0z5rN5d-89" vertex="1">
          <mxGeometry width="55" height="40" as="geometry">
            <mxRectangle width="55" height="40" as="alternateBounds" />
          </mxGeometry>
        </mxCell>
        <mxCell id="ZSmk_y_2do82O0z5rN5d-91" value="" style="shape=partialRectangle;html=1;whiteSpace=wrap;connectable=0;overflow=hidden;fillColor=#f5f5f5;top=0;left=0;bottom=0;right=0;pointerEvents=1;labelBackgroundColor=none;strokeColor=#666666;gradientColor=#b3b3b3;" parent="ZSmk_y_2do82O0z5rN5d-89" vertex="1">
          <mxGeometry x="55" width="255" height="40" as="geometry">
            <mxRectangle width="255" height="40" as="alternateBounds" />
          </mxGeometry>
        </mxCell>
        <mxCell id="ZSmk_y_2do82O0z5rN5d-92" value="Orders" style="shape=table;startSize=30;container=1;collapsible=0;childLayout=tableLayout;labelBackgroundColor=none;fillColor=#f5f5f5;strokeColor=#666666;gradientColor=#b3b3b3;" parent="1" vertex="1">
          <mxGeometry x="2860" y="1111" width="270" height="190" as="geometry" />
        </mxCell>
        <mxCell id="ZSmk_y_2do82O0z5rN5d-93" value="" style="shape=tableRow;horizontal=0;startSize=0;swimlaneHead=0;swimlaneBody=0;top=0;left=0;bottom=0;right=0;collapsible=0;dropTarget=0;fillColor=#f5f5f5;points=[[0,0.5],[1,0.5]];portConstraint=eastwest;labelBackgroundColor=none;strokeColor=#666666;gradientColor=#b3b3b3;" parent="ZSmk_y_2do82O0z5rN5d-92" vertex="1">
          <mxGeometry y="30" width="270" height="40" as="geometry" />
        </mxCell>
        <mxCell id="ZSmk_y_2do82O0z5rN5d-94" value="" style="shape=partialRectangle;html=1;whiteSpace=wrap;connectable=0;overflow=hidden;fillColor=#f5f5f5;top=0;left=0;bottom=0;right=0;pointerEvents=1;labelBackgroundColor=none;strokeColor=#666666;gradientColor=#b3b3b3;" parent="ZSmk_y_2do82O0z5rN5d-93" vertex="1">
          <mxGeometry width="40" height="40" as="geometry">
            <mxRectangle width="40" height="40" as="alternateBounds" />
          </mxGeometry>
        </mxCell>
        <mxCell id="ZSmk_y_2do82O0z5rN5d-95" value="Orders made" style="shape=partialRectangle;html=1;whiteSpace=wrap;connectable=0;overflow=hidden;fillColor=#f5f5f5;top=0;left=0;bottom=0;right=0;pointerEvents=1;labelBackgroundColor=none;strokeColor=#666666;gradientColor=#b3b3b3;" parent="ZSmk_y_2do82O0z5rN5d-93" vertex="1">
          <mxGeometry x="40" width="230" height="40" as="geometry">
            <mxRectangle width="230" height="40" as="alternateBounds" />
          </mxGeometry>
        </mxCell>
        <mxCell id="ZSmk_y_2do82O0z5rN5d-96" value="" style="shape=tableRow;horizontal=0;startSize=0;swimlaneHead=0;swimlaneBody=0;top=0;left=0;bottom=0;right=0;collapsible=0;dropTarget=0;fillColor=#f5f5f5;points=[[0,0.5],[1,0.5]];portConstraint=eastwest;labelBackgroundColor=none;strokeColor=#666666;gradientColor=#b3b3b3;" parent="ZSmk_y_2do82O0z5rN5d-92" vertex="1">
          <mxGeometry y="70" width="270" height="40" as="geometry" />
        </mxCell>
        <mxCell id="ZSmk_y_2do82O0z5rN5d-97" value="" style="shape=partialRectangle;html=1;whiteSpace=wrap;connectable=0;overflow=hidden;fillColor=#f5f5f5;top=0;left=0;bottom=0;right=0;pointerEvents=1;labelBackgroundColor=none;strokeColor=#666666;gradientColor=#b3b3b3;" parent="ZSmk_y_2do82O0z5rN5d-96" vertex="1">
          <mxGeometry width="40" height="40" as="geometry">
            <mxRectangle width="40" height="40" as="alternateBounds" />
          </mxGeometry>
        </mxCell>
        <mxCell id="ZSmk_y_2do82O0z5rN5d-98" value="Total orders made" style="shape=partialRectangle;html=1;whiteSpace=wrap;connectable=0;overflow=hidden;fillColor=#f5f5f5;top=0;left=0;bottom=0;right=0;pointerEvents=1;labelBackgroundColor=none;strokeColor=#666666;gradientColor=#b3b3b3;" parent="ZSmk_y_2do82O0z5rN5d-96" vertex="1">
          <mxGeometry x="40" width="230" height="40" as="geometry">
            <mxRectangle width="230" height="40" as="alternateBounds" />
          </mxGeometry>
        </mxCell>
        <mxCell id="ZSmk_y_2do82O0z5rN5d-99" value="" style="shape=tableRow;horizontal=0;startSize=0;swimlaneHead=0;swimlaneBody=0;top=0;left=0;bottom=0;right=0;collapsible=0;dropTarget=0;fillColor=#f5f5f5;points=[[0,0.5],[1,0.5]];portConstraint=eastwest;labelBackgroundColor=none;strokeColor=#666666;gradientColor=#b3b3b3;" parent="ZSmk_y_2do82O0z5rN5d-92" vertex="1">
          <mxGeometry y="110" width="270" height="40" as="geometry" />
        </mxCell>
        <mxCell id="ZSmk_y_2do82O0z5rN5d-100" value="" style="shape=partialRectangle;html=1;whiteSpace=wrap;connectable=0;overflow=hidden;fillColor=#f5f5f5;top=0;left=0;bottom=0;right=0;pointerEvents=1;labelBackgroundColor=none;strokeColor=#666666;gradientColor=#b3b3b3;" parent="ZSmk_y_2do82O0z5rN5d-99" vertex="1">
          <mxGeometry width="40" height="40" as="geometry">
            <mxRectangle width="40" height="40" as="alternateBounds" />
          </mxGeometry>
        </mxCell>
        <mxCell id="ZSmk_y_2do82O0z5rN5d-101" value="Customer ID" style="shape=partialRectangle;html=1;whiteSpace=wrap;connectable=0;overflow=hidden;fillColor=#f5f5f5;top=0;left=0;bottom=0;right=0;pointerEvents=1;labelBackgroundColor=none;strokeColor=#666666;gradientColor=#b3b3b3;" parent="ZSmk_y_2do82O0z5rN5d-99" vertex="1">
          <mxGeometry x="40" width="230" height="40" as="geometry">
            <mxRectangle width="230" height="40" as="alternateBounds" />
          </mxGeometry>
        </mxCell>
        <mxCell id="ZSmk_y_2do82O0z5rN5d-102" value="" style="shape=tableRow;horizontal=0;startSize=0;swimlaneHead=0;swimlaneBody=0;top=0;left=0;bottom=0;right=0;collapsible=0;dropTarget=0;fillColor=#f5f5f5;points=[[0,0.5],[1,0.5]];portConstraint=eastwest;labelBackgroundColor=none;strokeColor=#666666;gradientColor=#b3b3b3;" parent="ZSmk_y_2do82O0z5rN5d-92" vertex="1">
          <mxGeometry y="150" width="270" height="40" as="geometry" />
        </mxCell>
        <mxCell id="ZSmk_y_2do82O0z5rN5d-103" value="" style="shape=partialRectangle;html=1;whiteSpace=wrap;connectable=0;overflow=hidden;fillColor=#f5f5f5;top=0;left=0;bottom=0;right=0;pointerEvents=1;labelBackgroundColor=none;strokeColor=#666666;gradientColor=#b3b3b3;" parent="ZSmk_y_2do82O0z5rN5d-102" vertex="1">
          <mxGeometry width="40" height="40" as="geometry">
            <mxRectangle width="40" height="40" as="alternateBounds" />
          </mxGeometry>
        </mxCell>
        <mxCell id="ZSmk_y_2do82O0z5rN5d-104" value="Orders_sucessful" style="shape=partialRectangle;html=1;whiteSpace=wrap;connectable=0;overflow=hidden;fillColor=#f5f5f5;top=0;left=0;bottom=0;right=0;pointerEvents=1;labelBackgroundColor=none;strokeColor=#666666;gradientColor=#b3b3b3;" parent="ZSmk_y_2do82O0z5rN5d-102" vertex="1">
          <mxGeometry x="40" width="230" height="40" as="geometry">
            <mxRectangle width="230" height="40" as="alternateBounds" />
          </mxGeometry>
        </mxCell>
        <mxCell id="ZSmk_y_2do82O0z5rN5d-105" value="Customer" style="shape=table;startSize=30;container=1;collapsible=0;childLayout=tableLayout;labelBackgroundColor=none;fillColor=#f5f5f5;strokeColor=#666666;swimlaneFillColor=none;gradientColor=#b3b3b3;gradientDirection=south;" parent="1" vertex="1">
          <mxGeometry x="1220" y="482" width="190" height="270" as="geometry" />
        </mxCell>
        <mxCell id="ZSmk_y_2do82O0z5rN5d-106" value="" style="shape=tableRow;horizontal=0;startSize=0;swimlaneHead=0;swimlaneBody=0;top=0;left=0;bottom=0;right=0;collapsible=0;dropTarget=0;points=[[0,0.5],[1,0.5]];portConstraint=eastwest;labelBackgroundColor=none;fillColor=#f5f5f5;strokeColor=#666666;gradientColor=#b3b3b3;swimlaneFillColor=none;" parent="ZSmk_y_2do82O0z5rN5d-105" vertex="1">
          <mxGeometry y="30" width="190" height="40" as="geometry" />
        </mxCell>
        <mxCell id="ZSmk_y_2do82O0z5rN5d-107" value="String" style="shape=partialRectangle;html=1;whiteSpace=wrap;connectable=0;overflow=hidden;top=0;left=0;bottom=0;right=0;pointerEvents=1;labelBackgroundColor=none;fillColor=#f5f5f5;strokeColor=#666666;gradientColor=#b3b3b3;swimlaneFillColor=none;" parent="ZSmk_y_2do82O0z5rN5d-106" vertex="1">
          <mxGeometry width="56" height="40" as="geometry">
            <mxRectangle width="56" height="40" as="alternateBounds" />
          </mxGeometry>
        </mxCell>
        <mxCell id="ZSmk_y_2do82O0z5rN5d-108" value="ID_Customer" style="shape=partialRectangle;html=1;whiteSpace=wrap;connectable=0;overflow=hidden;top=0;left=0;bottom=0;right=0;pointerEvents=1;labelBackgroundColor=none;fillColor=#f5f5f5;strokeColor=#666666;gradientColor=#b3b3b3;swimlaneFillColor=none;" parent="ZSmk_y_2do82O0z5rN5d-106" vertex="1">
          <mxGeometry x="56" width="134" height="40" as="geometry">
            <mxRectangle width="134" height="40" as="alternateBounds" />
          </mxGeometry>
        </mxCell>
        <mxCell id="ZSmk_y_2do82O0z5rN5d-109" value="" style="shape=tableRow;horizontal=0;startSize=0;swimlaneHead=0;swimlaneBody=0;top=0;left=0;bottom=0;right=0;collapsible=0;dropTarget=0;points=[[0,0.5],[1,0.5]];portConstraint=eastwest;labelBackgroundColor=none;fillColor=#f5f5f5;strokeColor=#666666;gradientColor=#b3b3b3;swimlaneFillColor=none;" parent="ZSmk_y_2do82O0z5rN5d-105" vertex="1">
          <mxGeometry y="70" width="190" height="40" as="geometry" />
        </mxCell>
        <mxCell id="ZSmk_y_2do82O0z5rN5d-110" value="String" style="shape=partialRectangle;html=1;whiteSpace=wrap;connectable=0;overflow=hidden;top=0;left=0;bottom=0;right=0;pointerEvents=1;labelBackgroundColor=none;fillColor=#f5f5f5;strokeColor=#666666;gradientColor=#b3b3b3;swimlaneFillColor=none;" parent="ZSmk_y_2do82O0z5rN5d-109" vertex="1">
          <mxGeometry width="56" height="40" as="geometry">
            <mxRectangle width="56" height="40" as="alternateBounds" />
          </mxGeometry>
        </mxCell>
        <mxCell id="ZSmk_y_2do82O0z5rN5d-111" value="Full_Name" style="shape=partialRectangle;html=1;whiteSpace=wrap;connectable=0;overflow=hidden;top=0;left=0;bottom=0;right=0;pointerEvents=1;labelBackgroundColor=none;fillColor=#f5f5f5;strokeColor=#666666;gradientColor=#b3b3b3;swimlaneFillColor=none;" parent="ZSmk_y_2do82O0z5rN5d-109" vertex="1">
          <mxGeometry x="56" width="134" height="40" as="geometry">
            <mxRectangle width="134" height="40" as="alternateBounds" />
          </mxGeometry>
        </mxCell>
        <mxCell id="ZSmk_y_2do82O0z5rN5d-112" value="" style="shape=tableRow;horizontal=0;startSize=0;swimlaneHead=0;swimlaneBody=0;top=0;left=0;bottom=0;right=0;collapsible=0;dropTarget=0;points=[[0,0.5],[1,0.5]];portConstraint=eastwest;labelBackgroundColor=none;fillColor=#f5f5f5;strokeColor=#666666;gradientColor=#b3b3b3;swimlaneFillColor=none;" parent="ZSmk_y_2do82O0z5rN5d-105" vertex="1">
          <mxGeometry y="110" width="190" height="40" as="geometry" />
        </mxCell>
        <mxCell id="ZSmk_y_2do82O0z5rN5d-113" value="Date" style="shape=partialRectangle;html=1;whiteSpace=wrap;connectable=0;overflow=hidden;top=0;left=0;bottom=0;right=0;pointerEvents=1;labelBackgroundColor=none;fillColor=#f5f5f5;strokeColor=#666666;gradientColor=#b3b3b3;swimlaneFillColor=none;" parent="ZSmk_y_2do82O0z5rN5d-112" vertex="1">
          <mxGeometry width="56" height="40" as="geometry">
            <mxRectangle width="56" height="40" as="alternateBounds" />
          </mxGeometry>
        </mxCell>
        <mxCell id="ZSmk_y_2do82O0z5rN5d-114" value="DOB" style="shape=partialRectangle;html=1;whiteSpace=wrap;connectable=0;overflow=hidden;top=0;left=0;bottom=0;right=0;pointerEvents=1;labelBackgroundColor=none;fillColor=#f5f5f5;strokeColor=#666666;gradientColor=#b3b3b3;swimlaneFillColor=none;" parent="ZSmk_y_2do82O0z5rN5d-112" vertex="1">
          <mxGeometry x="56" width="134" height="40" as="geometry">
            <mxRectangle width="134" height="40" as="alternateBounds" />
          </mxGeometry>
        </mxCell>
        <mxCell id="ZSmk_y_2do82O0z5rN5d-115" value="" style="shape=tableRow;horizontal=0;startSize=0;swimlaneHead=0;swimlaneBody=0;top=0;left=0;bottom=0;right=0;collapsible=0;dropTarget=0;points=[[0,0.5],[1,0.5]];portConstraint=eastwest;labelBackgroundColor=none;fillColor=#f5f5f5;strokeColor=#666666;gradientColor=#b3b3b3;swimlaneFillColor=none;" parent="ZSmk_y_2do82O0z5rN5d-105" vertex="1">
          <mxGeometry y="150" width="190" height="40" as="geometry" />
        </mxCell>
        <mxCell id="ZSmk_y_2do82O0z5rN5d-116" value="string" style="shape=partialRectangle;html=1;whiteSpace=wrap;connectable=0;overflow=hidden;top=0;left=0;bottom=0;right=0;pointerEvents=1;labelBackgroundColor=none;fillColor=#f5f5f5;strokeColor=#666666;gradientColor=#b3b3b3;swimlaneFillColor=none;" parent="ZSmk_y_2do82O0z5rN5d-115" vertex="1">
          <mxGeometry width="56" height="40" as="geometry">
            <mxRectangle width="56" height="40" as="alternateBounds" />
          </mxGeometry>
        </mxCell>
        <mxCell id="ZSmk_y_2do82O0z5rN5d-117" value="Phone" style="shape=partialRectangle;html=1;whiteSpace=wrap;connectable=0;overflow=hidden;top=0;left=0;bottom=0;right=0;pointerEvents=1;labelBackgroundColor=none;fillColor=#f5f5f5;strokeColor=#666666;gradientColor=#b3b3b3;swimlaneFillColor=none;" parent="ZSmk_y_2do82O0z5rN5d-115" vertex="1">
          <mxGeometry x="56" width="134" height="40" as="geometry">
            <mxRectangle width="134" height="40" as="alternateBounds" />
          </mxGeometry>
        </mxCell>
        <mxCell id="ZSmk_y_2do82O0z5rN5d-118" value="" style="shape=tableRow;horizontal=0;startSize=0;swimlaneHead=0;swimlaneBody=0;top=0;left=0;bottom=0;right=0;collapsible=0;dropTarget=0;points=[[0,0.5],[1,0.5]];portConstraint=eastwest;labelBackgroundColor=none;fillColor=#f5f5f5;strokeColor=#666666;gradientColor=#b3b3b3;swimlaneFillColor=none;" parent="ZSmk_y_2do82O0z5rN5d-105" vertex="1">
          <mxGeometry y="190" width="190" height="40" as="geometry" />
        </mxCell>
        <mxCell id="ZSmk_y_2do82O0z5rN5d-119" value="string" style="shape=partialRectangle;html=1;whiteSpace=wrap;connectable=0;overflow=hidden;top=0;left=0;bottom=0;right=0;pointerEvents=1;labelBackgroundColor=none;fillColor=#f5f5f5;strokeColor=#666666;gradientColor=#b3b3b3;swimlaneFillColor=none;" parent="ZSmk_y_2do82O0z5rN5d-118" vertex="1">
          <mxGeometry width="56" height="40" as="geometry">
            <mxRectangle width="56" height="40" as="alternateBounds" />
          </mxGeometry>
        </mxCell>
        <mxCell id="ZSmk_y_2do82O0z5rN5d-120" value="Address" style="shape=partialRectangle;html=1;whiteSpace=wrap;connectable=0;overflow=hidden;top=0;left=0;bottom=0;right=0;pointerEvents=1;labelBackgroundColor=none;fillColor=#f5f5f5;strokeColor=#666666;gradientColor=#b3b3b3;swimlaneFillColor=none;" parent="ZSmk_y_2do82O0z5rN5d-118" vertex="1">
          <mxGeometry x="56" width="134" height="40" as="geometry">
            <mxRectangle width="134" height="40" as="alternateBounds" />
          </mxGeometry>
        </mxCell>
        <mxCell id="ZSmk_y_2do82O0z5rN5d-121" value="" style="shape=tableRow;horizontal=0;startSize=0;swimlaneHead=0;swimlaneBody=0;top=0;left=0;bottom=0;right=0;collapsible=0;dropTarget=0;points=[[0,0.5],[1,0.5]];portConstraint=eastwest;labelBackgroundColor=none;fillColor=#f5f5f5;strokeColor=#666666;gradientColor=#b3b3b3;swimlaneFillColor=none;" parent="ZSmk_y_2do82O0z5rN5d-105" vertex="1">
          <mxGeometry y="230" width="190" height="40" as="geometry" />
        </mxCell>
        <mxCell id="ZSmk_y_2do82O0z5rN5d-122" value="String" style="shape=partialRectangle;html=1;whiteSpace=wrap;connectable=0;overflow=hidden;top=0;left=0;bottom=0;right=0;pointerEvents=1;labelBackgroundColor=none;fillColor=#f5f5f5;strokeColor=#666666;gradientColor=#b3b3b3;swimlaneFillColor=none;" parent="ZSmk_y_2do82O0z5rN5d-121" vertex="1">
          <mxGeometry width="56" height="40" as="geometry">
            <mxRectangle width="56" height="40" as="alternateBounds" />
          </mxGeometry>
        </mxCell>
        <mxCell id="ZSmk_y_2do82O0z5rN5d-123" value="Email" style="shape=partialRectangle;html=1;whiteSpace=wrap;connectable=0;overflow=hidden;top=0;left=0;bottom=0;right=0;pointerEvents=1;labelBackgroundColor=none;fillColor=#f5f5f5;strokeColor=#666666;gradientColor=#b3b3b3;swimlaneFillColor=none;" parent="ZSmk_y_2do82O0z5rN5d-121" vertex="1">
          <mxGeometry x="56" width="134" height="40" as="geometry">
            <mxRectangle width="134" height="40" as="alternateBounds" />
          </mxGeometry>
        </mxCell>
        <mxCell id="ZSmk_y_2do82O0z5rN5d-124" value="Order" style="shape=table;startSize=30;container=1;collapsible=0;childLayout=tableLayout;fillStyle=auto;labelBackgroundColor=none;fillColor=#f5f5f5;strokeColor=#666666;gradientColor=#b3b3b3;" parent="1" vertex="1">
          <mxGeometry x="1640" y="820" width="240" height="334" as="geometry" />
        </mxCell>
        <mxCell id="ZSmk_y_2do82O0z5rN5d-125" value="" style="shape=tableRow;horizontal=0;startSize=0;swimlaneHead=0;swimlaneBody=0;top=0;left=0;bottom=0;right=0;collapsible=0;dropTarget=0;points=[[0,0.5],[1,0.5]];portConstraint=eastwest;labelBackgroundColor=none;fillColor=#f5f5f5;strokeColor=#666666;gradientColor=#b3b3b3;" parent="ZSmk_y_2do82O0z5rN5d-124" vertex="1">
          <mxGeometry y="30" width="240" height="43" as="geometry" />
        </mxCell>
        <mxCell id="fA-xOSXEoonkSRoC_1WO-65" value="String(PK)" style="shape=partialRectangle;html=1;whiteSpace=wrap;connectable=0;overflow=hidden;top=0;left=0;bottom=0;right=0;pointerEvents=1;labelBackgroundColor=none;fillColor=#f5f5f5;strokeColor=#666666;gradientColor=#b3b3b3;" parent="ZSmk_y_2do82O0z5rN5d-125" vertex="1">
          <mxGeometry width="100" height="43" as="geometry">
            <mxRectangle width="100" height="43" as="alternateBounds" />
          </mxGeometry>
        </mxCell>
        <mxCell id="ZSmk_y_2do82O0z5rN5d-126" value="Order_ID" style="shape=partialRectangle;html=1;whiteSpace=wrap;connectable=0;overflow=hidden;top=0;left=0;bottom=0;right=0;pointerEvents=1;labelBackgroundColor=none;fillColor=#f5f5f5;strokeColor=#666666;gradientColor=#b3b3b3;" parent="ZSmk_y_2do82O0z5rN5d-125" vertex="1">
          <mxGeometry x="100" width="140" height="43" as="geometry">
            <mxRectangle width="140" height="43" as="alternateBounds" />
          </mxGeometry>
        </mxCell>
        <mxCell id="fA-xOSXEoonkSRoC_1WO-3" style="shape=tableRow;horizontal=0;startSize=0;swimlaneHead=0;swimlaneBody=0;top=0;left=0;bottom=0;right=0;collapsible=0;dropTarget=0;points=[[0,0.5],[1,0.5]];portConstraint=eastwest;labelBackgroundColor=none;fillColor=#f5f5f5;strokeColor=#666666;gradientColor=#b3b3b3;" parent="ZSmk_y_2do82O0z5rN5d-124" vertex="1">
          <mxGeometry y="73" width="240" height="31" as="geometry" />
        </mxCell>
        <mxCell id="fA-xOSXEoonkSRoC_1WO-66" value="String(FK)" style="shape=partialRectangle;html=1;whiteSpace=wrap;connectable=0;overflow=hidden;top=0;left=0;bottom=0;right=0;pointerEvents=1;labelBackgroundColor=none;fillColor=#f5f5f5;strokeColor=#666666;gradientColor=#b3b3b3;" parent="fA-xOSXEoonkSRoC_1WO-3" vertex="1">
          <mxGeometry width="100" height="31" as="geometry">
            <mxRectangle width="100" height="31" as="alternateBounds" />
          </mxGeometry>
        </mxCell>
        <mxCell id="fA-xOSXEoonkSRoC_1WO-4" value="Sale_ID" style="shape=partialRectangle;html=1;whiteSpace=wrap;connectable=0;overflow=hidden;top=0;left=0;bottom=0;right=0;pointerEvents=1;labelBackgroundColor=none;fillColor=#f5f5f5;strokeColor=#666666;gradientColor=#b3b3b3;" parent="fA-xOSXEoonkSRoC_1WO-3" vertex="1">
          <mxGeometry x="100" width="140" height="31" as="geometry">
            <mxRectangle width="140" height="31" as="alternateBounds" />
          </mxGeometry>
        </mxCell>
        <mxCell id="ZSmk_y_2do82O0z5rN5d-127" value="" style="shape=tableRow;horizontal=0;startSize=0;swimlaneHead=0;swimlaneBody=0;top=0;left=0;bottom=0;right=0;collapsible=0;dropTarget=0;points=[[0,0.5],[1,0.5]];portConstraint=eastwest;labelBackgroundColor=none;fillColor=#f5f5f5;strokeColor=#666666;gradientColor=#b3b3b3;" parent="ZSmk_y_2do82O0z5rN5d-124" vertex="1">
          <mxGeometry y="104" width="240" height="31" as="geometry" />
        </mxCell>
        <mxCell id="fA-xOSXEoonkSRoC_1WO-67" value="DOB" style="shape=partialRectangle;html=1;whiteSpace=wrap;connectable=0;overflow=hidden;top=0;left=0;bottom=0;right=0;pointerEvents=1;labelBackgroundColor=none;fillColor=#f5f5f5;strokeColor=#666666;gradientColor=#b3b3b3;" parent="ZSmk_y_2do82O0z5rN5d-127" vertex="1">
          <mxGeometry width="100" height="31" as="geometry">
            <mxRectangle width="100" height="31" as="alternateBounds" />
          </mxGeometry>
        </mxCell>
        <mxCell id="ZSmk_y_2do82O0z5rN5d-128" value="Order_date" style="shape=partialRectangle;html=1;whiteSpace=wrap;connectable=0;overflow=hidden;top=0;left=0;bottom=0;right=0;pointerEvents=1;labelBackgroundColor=none;fillColor=#f5f5f5;strokeColor=#666666;gradientColor=#b3b3b3;" parent="ZSmk_y_2do82O0z5rN5d-127" vertex="1">
          <mxGeometry x="100" width="140" height="31" as="geometry">
            <mxRectangle width="140" height="31" as="alternateBounds" />
          </mxGeometry>
        </mxCell>
        <mxCell id="ZSmk_y_2do82O0z5rN5d-129" value="" style="shape=tableRow;horizontal=0;startSize=0;swimlaneHead=0;swimlaneBody=0;top=0;left=0;bottom=0;right=0;collapsible=0;dropTarget=0;points=[[0,0.5],[1,0.5]];portConstraint=eastwest;labelBackgroundColor=none;fillColor=#f5f5f5;strokeColor=#666666;gradientColor=#b3b3b3;" parent="ZSmk_y_2do82O0z5rN5d-124" vertex="1">
          <mxGeometry y="135" width="240" height="43" as="geometry" />
        </mxCell>
        <mxCell id="fA-xOSXEoonkSRoC_1WO-68" value="String(FK)" style="shape=partialRectangle;html=1;whiteSpace=wrap;connectable=0;overflow=hidden;top=0;left=0;bottom=0;right=0;pointerEvents=1;labelBackgroundColor=none;fillColor=#f5f5f5;strokeColor=#666666;gradientColor=#b3b3b3;" parent="ZSmk_y_2do82O0z5rN5d-129" vertex="1">
          <mxGeometry width="100" height="43" as="geometry">
            <mxRectangle width="100" height="43" as="alternateBounds" />
          </mxGeometry>
        </mxCell>
        <mxCell id="ZSmk_y_2do82O0z5rN5d-130" value="Customer_id" style="shape=partialRectangle;html=1;whiteSpace=wrap;connectable=0;overflow=hidden;top=0;left=0;bottom=0;right=0;pointerEvents=1;labelBackgroundColor=none;fillColor=#f5f5f5;strokeColor=#666666;gradientColor=#b3b3b3;" parent="ZSmk_y_2do82O0z5rN5d-129" vertex="1">
          <mxGeometry x="100" width="140" height="43" as="geometry">
            <mxRectangle width="140" height="43" as="alternateBounds" />
          </mxGeometry>
        </mxCell>
        <mxCell id="ZSmk_y_2do82O0z5rN5d-131" value="" style="shape=tableRow;horizontal=0;startSize=0;swimlaneHead=0;swimlaneBody=0;top=0;left=0;bottom=0;right=0;collapsible=0;dropTarget=0;points=[[0,0.5],[1,0.5]];portConstraint=eastwest;labelBackgroundColor=none;fillColor=#f5f5f5;strokeColor=#666666;gradientColor=#b3b3b3;" parent="ZSmk_y_2do82O0z5rN5d-124" vertex="1">
          <mxGeometry y="178" width="240" height="52" as="geometry" />
        </mxCell>
        <mxCell id="fA-xOSXEoonkSRoC_1WO-69" value="Boolean" style="shape=partialRectangle;html=1;whiteSpace=wrap;connectable=0;overflow=hidden;top=0;left=0;bottom=0;right=0;pointerEvents=1;labelBackgroundColor=none;fillColor=#f5f5f5;strokeColor=#666666;gradientColor=#b3b3b3;" parent="ZSmk_y_2do82O0z5rN5d-131" vertex="1">
          <mxGeometry width="100" height="52" as="geometry">
            <mxRectangle width="100" height="52" as="alternateBounds" />
          </mxGeometry>
        </mxCell>
        <mxCell id="ZSmk_y_2do82O0z5rN5d-132" value="Order_successful" style="shape=partialRectangle;html=1;whiteSpace=wrap;connectable=0;overflow=hidden;top=0;left=0;bottom=0;right=0;pointerEvents=1;labelBackgroundColor=none;fillColor=#f5f5f5;strokeColor=#666666;gradientColor=#b3b3b3;" parent="ZSmk_y_2do82O0z5rN5d-131" vertex="1">
          <mxGeometry x="100" width="140" height="52" as="geometry">
            <mxRectangle width="140" height="52" as="alternateBounds" />
          </mxGeometry>
        </mxCell>
        <mxCell id="ZSmk_y_2do82O0z5rN5d-133" style="shape=tableRow;horizontal=0;startSize=0;swimlaneHead=0;swimlaneBody=0;top=0;left=0;bottom=0;right=0;collapsible=0;dropTarget=0;points=[[0,0.5],[1,0.5]];portConstraint=eastwest;labelBackgroundColor=none;fillColor=#f5f5f5;strokeColor=#666666;gradientColor=#b3b3b3;" parent="ZSmk_y_2do82O0z5rN5d-124" vertex="1">
          <mxGeometry y="230" width="240" height="52" as="geometry" />
        </mxCell>
        <mxCell id="fA-xOSXEoonkSRoC_1WO-70" value="String" style="shape=partialRectangle;html=1;whiteSpace=wrap;connectable=0;overflow=hidden;top=0;left=0;bottom=0;right=0;pointerEvents=1;labelBackgroundColor=none;fillColor=#f5f5f5;strokeColor=#666666;gradientColor=#b3b3b3;" parent="ZSmk_y_2do82O0z5rN5d-133" vertex="1">
          <mxGeometry width="100" height="52" as="geometry">
            <mxRectangle width="100" height="52" as="alternateBounds" />
          </mxGeometry>
        </mxCell>
        <mxCell id="ZSmk_y_2do82O0z5rN5d-134" value="Total_order_price" style="shape=partialRectangle;html=1;whiteSpace=wrap;connectable=0;overflow=hidden;top=0;left=0;bottom=0;right=0;pointerEvents=1;labelBackgroundColor=none;fillColor=#f5f5f5;strokeColor=#666666;gradientColor=#b3b3b3;" parent="ZSmk_y_2do82O0z5rN5d-133" vertex="1">
          <mxGeometry x="100" width="140" height="52" as="geometry">
            <mxRectangle width="140" height="52" as="alternateBounds" />
          </mxGeometry>
        </mxCell>
        <mxCell id="fA-xOSXEoonkSRoC_1WO-8" style="shape=tableRow;horizontal=0;startSize=0;swimlaneHead=0;swimlaneBody=0;top=0;left=0;bottom=0;right=0;collapsible=0;dropTarget=0;points=[[0,0.5],[1,0.5]];portConstraint=eastwest;labelBackgroundColor=none;fillColor=#f5f5f5;strokeColor=#666666;gradientColor=#b3b3b3;" parent="ZSmk_y_2do82O0z5rN5d-124" vertex="1">
          <mxGeometry y="282" width="240" height="52" as="geometry" />
        </mxCell>
        <mxCell id="fA-xOSXEoonkSRoC_1WO-71" value="String(FK)" style="shape=partialRectangle;html=1;whiteSpace=wrap;connectable=0;overflow=hidden;top=0;left=0;bottom=0;right=0;pointerEvents=1;labelBackgroundColor=none;fillColor=#f5f5f5;strokeColor=#666666;gradientColor=#b3b3b3;" parent="fA-xOSXEoonkSRoC_1WO-8" vertex="1">
          <mxGeometry width="100" height="52" as="geometry">
            <mxRectangle width="100" height="52" as="alternateBounds" />
          </mxGeometry>
        </mxCell>
        <mxCell id="fA-xOSXEoonkSRoC_1WO-9" value="Store_ID" style="shape=partialRectangle;html=1;whiteSpace=wrap;connectable=0;overflow=hidden;top=0;left=0;bottom=0;right=0;pointerEvents=1;labelBackgroundColor=none;fillColor=#f5f5f5;strokeColor=#666666;gradientColor=#b3b3b3;" parent="fA-xOSXEoonkSRoC_1WO-8" vertex="1">
          <mxGeometry x="100" width="140" height="52" as="geometry">
            <mxRectangle width="140" height="52" as="alternateBounds" />
          </mxGeometry>
        </mxCell>
        <mxCell id="ZSmk_y_2do82O0z5rN5d-135" value="Product" style="shape=table;startSize=30;container=1;collapsible=0;childLayout=tableLayout;labelBackgroundColor=none;fillColor=#f5f5f5;strokeColor=#666666;gradientColor=#b3b3b3;" parent="1" vertex="1">
          <mxGeometry x="1620" y="446" width="250" height="254" as="geometry" />
        </mxCell>
        <mxCell id="ZSmk_y_2do82O0z5rN5d-136" value="" style="shape=tableRow;horizontal=0;startSize=0;swimlaneHead=0;swimlaneBody=0;top=0;left=0;bottom=0;right=0;collapsible=0;dropTarget=0;points=[[0,0.5],[1,0.5]];portConstraint=eastwest;labelBackgroundColor=none;fillColor=#f5f5f5;strokeColor=#666666;gradientColor=#b3b3b3;" parent="ZSmk_y_2do82O0z5rN5d-135" vertex="1">
          <mxGeometry y="30" width="250" height="37" as="geometry" />
        </mxCell>
        <mxCell id="fA-xOSXEoonkSRoC_1WO-59" value="String(PK)" style="shape=partialRectangle;html=1;whiteSpace=wrap;connectable=0;overflow=hidden;top=0;left=0;bottom=0;right=0;pointerEvents=1;labelBackgroundColor=none;fillColor=#f5f5f5;strokeColor=#666666;gradientColor=#b3b3b3;" parent="ZSmk_y_2do82O0z5rN5d-136" vertex="1">
          <mxGeometry width="75" height="37" as="geometry">
            <mxRectangle width="75" height="37" as="alternateBounds" />
          </mxGeometry>
        </mxCell>
        <mxCell id="ZSmk_y_2do82O0z5rN5d-137" value="Id_Product" style="shape=partialRectangle;html=1;whiteSpace=wrap;connectable=0;overflow=hidden;top=0;left=0;bottom=0;right=0;pointerEvents=1;labelBackgroundColor=none;fillColor=#f5f5f5;strokeColor=#666666;gradientColor=#b3b3b3;" parent="ZSmk_y_2do82O0z5rN5d-136" vertex="1">
          <mxGeometry x="75" width="175" height="37" as="geometry">
            <mxRectangle width="175" height="37" as="alternateBounds" />
          </mxGeometry>
        </mxCell>
        <mxCell id="ZSmk_y_2do82O0z5rN5d-138" value="" style="shape=tableRow;horizontal=0;startSize=0;swimlaneHead=0;swimlaneBody=0;top=0;left=0;bottom=0;right=0;collapsible=0;dropTarget=0;points=[[0,0.5],[1,0.5]];portConstraint=eastwest;labelBackgroundColor=none;fillColor=#f5f5f5;strokeColor=#666666;gradientColor=#b3b3b3;" parent="ZSmk_y_2do82O0z5rN5d-135" vertex="1">
          <mxGeometry y="67" width="250" height="38" as="geometry" />
        </mxCell>
        <mxCell id="fA-xOSXEoonkSRoC_1WO-60" value="VARCHAR" style="shape=partialRectangle;html=1;whiteSpace=wrap;connectable=0;overflow=hidden;top=0;left=0;bottom=0;right=0;pointerEvents=1;labelBackgroundColor=none;fillColor=#f5f5f5;strokeColor=#666666;gradientColor=#b3b3b3;" parent="ZSmk_y_2do82O0z5rN5d-138" vertex="1">
          <mxGeometry width="75" height="38" as="geometry">
            <mxRectangle width="75" height="38" as="alternateBounds" />
          </mxGeometry>
        </mxCell>
        <mxCell id="ZSmk_y_2do82O0z5rN5d-139" value="Apparel_name(s)" style="shape=partialRectangle;html=1;whiteSpace=wrap;connectable=0;overflow=hidden;top=0;left=0;bottom=0;right=0;pointerEvents=1;labelBackgroundColor=none;fillColor=#f5f5f5;strokeColor=#666666;gradientColor=#b3b3b3;" parent="ZSmk_y_2do82O0z5rN5d-138" vertex="1">
          <mxGeometry x="75" width="175" height="38" as="geometry">
            <mxRectangle width="175" height="38" as="alternateBounds" />
          </mxGeometry>
        </mxCell>
        <mxCell id="ZSmk_y_2do82O0z5rN5d-140" value="" style="shape=tableRow;horizontal=0;startSize=0;swimlaneHead=0;swimlaneBody=0;top=0;left=0;bottom=0;right=0;collapsible=0;dropTarget=0;points=[[0,0.5],[1,0.5]];portConstraint=eastwest;labelBackgroundColor=none;fillColor=#f5f5f5;strokeColor=#666666;gradientColor=#b3b3b3;" parent="ZSmk_y_2do82O0z5rN5d-135" vertex="1">
          <mxGeometry y="105" width="250" height="37" as="geometry" />
        </mxCell>
        <mxCell id="fA-xOSXEoonkSRoC_1WO-61" value="String" style="shape=partialRectangle;html=1;whiteSpace=wrap;connectable=0;overflow=hidden;top=0;left=0;bottom=0;right=0;pointerEvents=1;labelBackgroundColor=none;fillColor=#f5f5f5;strokeColor=#666666;gradientColor=#b3b3b3;" parent="ZSmk_y_2do82O0z5rN5d-140" vertex="1">
          <mxGeometry width="75" height="37" as="geometry">
            <mxRectangle width="75" height="37" as="alternateBounds" />
          </mxGeometry>
        </mxCell>
        <mxCell id="ZSmk_y_2do82O0z5rN5d-141" value="Product_price" style="shape=partialRectangle;html=1;whiteSpace=wrap;connectable=0;overflow=hidden;top=0;left=0;bottom=0;right=0;pointerEvents=1;labelBackgroundColor=none;fillColor=#f5f5f5;strokeColor=#666666;gradientColor=#b3b3b3;" parent="ZSmk_y_2do82O0z5rN5d-140" vertex="1">
          <mxGeometry x="75" width="175" height="37" as="geometry">
            <mxRectangle width="175" height="37" as="alternateBounds" />
          </mxGeometry>
        </mxCell>
        <mxCell id="ZSmk_y_2do82O0z5rN5d-142" value="" style="shape=tableRow;horizontal=0;startSize=0;swimlaneHead=0;swimlaneBody=0;top=0;left=0;bottom=0;right=0;collapsible=0;dropTarget=0;points=[[0,0.5],[1,0.5]];portConstraint=eastwest;labelBackgroundColor=none;fillColor=#f5f5f5;strokeColor=#666666;gradientColor=#b3b3b3;" parent="ZSmk_y_2do82O0z5rN5d-135" vertex="1">
          <mxGeometry y="142" width="250" height="38" as="geometry" />
        </mxCell>
        <mxCell id="fA-xOSXEoonkSRoC_1WO-62" value="NUM" style="shape=partialRectangle;html=1;whiteSpace=wrap;connectable=0;overflow=hidden;top=0;left=0;bottom=0;right=0;pointerEvents=1;labelBackgroundColor=none;fillColor=#f5f5f5;strokeColor=#666666;gradientColor=#b3b3b3;" parent="ZSmk_y_2do82O0z5rN5d-142" vertex="1">
          <mxGeometry width="75" height="38" as="geometry">
            <mxRectangle width="75" height="38" as="alternateBounds" />
          </mxGeometry>
        </mxCell>
        <mxCell id="ZSmk_y_2do82O0z5rN5d-143" value="Product_quanttiy" style="shape=partialRectangle;html=1;whiteSpace=wrap;connectable=0;overflow=hidden;top=0;left=0;bottom=0;right=0;pointerEvents=1;labelBackgroundColor=none;fillColor=#f5f5f5;strokeColor=#666666;gradientColor=#b3b3b3;" parent="ZSmk_y_2do82O0z5rN5d-142" vertex="1">
          <mxGeometry x="75" width="175" height="38" as="geometry">
            <mxRectangle width="175" height="38" as="alternateBounds" />
          </mxGeometry>
        </mxCell>
        <mxCell id="ZSmk_y_2do82O0z5rN5d-144" value="" style="shape=tableRow;horizontal=0;startSize=0;swimlaneHead=0;swimlaneBody=0;top=0;left=0;bottom=0;right=0;collapsible=0;dropTarget=0;points=[[0,0.5],[1,0.5]];portConstraint=eastwest;labelBackgroundColor=none;fillColor=#f5f5f5;strokeColor=#666666;gradientColor=#b3b3b3;" parent="ZSmk_y_2do82O0z5rN5d-135" vertex="1">
          <mxGeometry y="180" width="250" height="37" as="geometry" />
        </mxCell>
        <mxCell id="fA-xOSXEoonkSRoC_1WO-63" value="String" style="shape=partialRectangle;html=1;whiteSpace=wrap;connectable=0;overflow=hidden;top=0;left=0;bottom=0;right=0;pointerEvents=1;labelBackgroundColor=none;fillColor=#f5f5f5;strokeColor=#666666;gradientColor=#b3b3b3;" parent="ZSmk_y_2do82O0z5rN5d-144" vertex="1">
          <mxGeometry width="75" height="37" as="geometry">
            <mxRectangle width="75" height="37" as="alternateBounds" />
          </mxGeometry>
        </mxCell>
        <mxCell id="ZSmk_y_2do82O0z5rN5d-145" value="Item_category" style="shape=partialRectangle;html=1;whiteSpace=wrap;connectable=0;overflow=hidden;top=0;left=0;bottom=0;right=0;pointerEvents=1;labelBackgroundColor=none;fillColor=#f5f5f5;strokeColor=#666666;gradientColor=#b3b3b3;" parent="ZSmk_y_2do82O0z5rN5d-144" vertex="1">
          <mxGeometry x="75" width="175" height="37" as="geometry">
            <mxRectangle width="175" height="37" as="alternateBounds" />
          </mxGeometry>
        </mxCell>
        <mxCell id="ZSmk_y_2do82O0z5rN5d-146" value="" style="shape=tableRow;horizontal=0;startSize=0;swimlaneHead=0;swimlaneBody=0;top=0;left=0;bottom=0;right=0;collapsible=0;dropTarget=0;points=[[0,0.5],[1,0.5]];portConstraint=eastwest;labelBackgroundColor=none;fillColor=#f5f5f5;strokeColor=#666666;gradientColor=#b3b3b3;" parent="ZSmk_y_2do82O0z5rN5d-135" vertex="1">
          <mxGeometry y="217" width="250" height="37" as="geometry" />
        </mxCell>
        <mxCell id="fA-xOSXEoonkSRoC_1WO-64" value="Boolean" style="shape=partialRectangle;html=1;whiteSpace=wrap;connectable=0;overflow=hidden;top=0;left=0;bottom=0;right=0;pointerEvents=1;labelBackgroundColor=none;fillColor=#f5f5f5;strokeColor=#666666;gradientColor=#b3b3b3;" parent="ZSmk_y_2do82O0z5rN5d-146" vertex="1">
          <mxGeometry width="75" height="37" as="geometry">
            <mxRectangle width="75" height="37" as="alternateBounds" />
          </mxGeometry>
        </mxCell>
        <mxCell id="ZSmk_y_2do82O0z5rN5d-147" value="Product_availability" style="shape=partialRectangle;html=1;whiteSpace=wrap;connectable=0;overflow=hidden;top=0;left=0;bottom=0;right=0;pointerEvents=1;labelBackgroundColor=none;fillColor=#f5f5f5;strokeColor=#666666;gradientColor=#b3b3b3;" parent="ZSmk_y_2do82O0z5rN5d-146" vertex="1">
          <mxGeometry x="75" width="175" height="37" as="geometry">
            <mxRectangle width="175" height="37" as="alternateBounds" />
          </mxGeometry>
        </mxCell>
        <mxCell id="ZSmk_y_2do82O0z5rN5d-148" value="Sale" style="shape=table;startSize=30;container=1;collapsible=0;childLayout=tableLayout;labelBackgroundColor=none;fillColor=#f5f5f5;strokeColor=#666666;gradientColor=#b3b3b3;" parent="1" vertex="1">
          <mxGeometry x="1120" y="924" width="330" height="270" as="geometry" />
        </mxCell>
        <mxCell id="ZSmk_y_2do82O0z5rN5d-149" value="" style="shape=tableRow;horizontal=0;startSize=0;swimlaneHead=0;swimlaneBody=0;top=0;left=0;bottom=0;right=0;collapsible=0;dropTarget=0;points=[[0,0.5],[1,0.5]];portConstraint=eastwest;labelBackgroundColor=none;fillColor=#f5f5f5;strokeColor=#666666;gradientColor=#b3b3b3;" parent="ZSmk_y_2do82O0z5rN5d-148" vertex="1">
          <mxGeometry y="30" width="330" height="40" as="geometry" />
        </mxCell>
        <mxCell id="fA-xOSXEoonkSRoC_1WO-54" value="String(PK)" style="shape=partialRectangle;html=1;whiteSpace=wrap;connectable=0;overflow=hidden;top=0;left=0;bottom=0;right=0;pointerEvents=1;labelBackgroundColor=none;fillColor=#f5f5f5;strokeColor=#666666;gradientColor=#b3b3b3;" parent="ZSmk_y_2do82O0z5rN5d-149" vertex="1">
          <mxGeometry width="95" height="40" as="geometry">
            <mxRectangle width="95" height="40" as="alternateBounds" />
          </mxGeometry>
        </mxCell>
        <mxCell id="ZSmk_y_2do82O0z5rN5d-150" value="Sale_ID" style="shape=partialRectangle;html=1;whiteSpace=wrap;connectable=0;overflow=hidden;top=0;left=0;bottom=0;right=0;pointerEvents=1;labelBackgroundColor=none;fillColor=#f5f5f5;strokeColor=#666666;gradientColor=#b3b3b3;" parent="ZSmk_y_2do82O0z5rN5d-149" vertex="1">
          <mxGeometry x="95" width="235" height="40" as="geometry">
            <mxRectangle width="235" height="40" as="alternateBounds" />
          </mxGeometry>
        </mxCell>
        <mxCell id="ZSmk_y_2do82O0z5rN5d-151" value="" style="shape=tableRow;horizontal=0;startSize=0;swimlaneHead=0;swimlaneBody=0;top=0;left=0;bottom=0;right=0;collapsible=0;dropTarget=0;points=[[0,0.5],[1,0.5]];portConstraint=eastwest;labelBackgroundColor=none;fillColor=#f5f5f5;strokeColor=#666666;gradientColor=#b3b3b3;" parent="ZSmk_y_2do82O0z5rN5d-148" vertex="1">
          <mxGeometry y="70" width="330" height="40" as="geometry" />
        </mxCell>
        <mxCell id="fA-xOSXEoonkSRoC_1WO-55" value="String" style="shape=partialRectangle;html=1;whiteSpace=wrap;connectable=0;overflow=hidden;top=0;left=0;bottom=0;right=0;pointerEvents=1;labelBackgroundColor=none;fillColor=#f5f5f5;strokeColor=#666666;gradientColor=#b3b3b3;" parent="ZSmk_y_2do82O0z5rN5d-151" vertex="1">
          <mxGeometry width="95" height="40" as="geometry">
            <mxRectangle width="95" height="40" as="alternateBounds" />
          </mxGeometry>
        </mxCell>
        <mxCell id="ZSmk_y_2do82O0z5rN5d-152" value="Total_Sales_price" style="shape=partialRectangle;html=1;whiteSpace=wrap;connectable=0;overflow=hidden;top=0;left=0;bottom=0;right=0;pointerEvents=1;labelBackgroundColor=none;fillColor=#f5f5f5;strokeColor=#666666;gradientColor=#b3b3b3;" parent="ZSmk_y_2do82O0z5rN5d-151" vertex="1">
          <mxGeometry x="95" width="235" height="40" as="geometry">
            <mxRectangle width="235" height="40" as="alternateBounds" />
          </mxGeometry>
        </mxCell>
        <mxCell id="ZSmk_y_2do82O0z5rN5d-153" value="" style="shape=tableRow;horizontal=0;startSize=0;swimlaneHead=0;swimlaneBody=0;top=0;left=0;bottom=0;right=0;collapsible=0;dropTarget=0;points=[[0,0.5],[1,0.5]];portConstraint=eastwest;labelBackgroundColor=none;fillColor=#f5f5f5;strokeColor=#666666;gradientColor=#b3b3b3;" parent="ZSmk_y_2do82O0z5rN5d-148" vertex="1">
          <mxGeometry y="110" width="330" height="40" as="geometry" />
        </mxCell>
        <mxCell id="fA-xOSXEoonkSRoC_1WO-56" value="String(FK)" style="shape=partialRectangle;html=1;whiteSpace=wrap;connectable=0;overflow=hidden;top=0;left=0;bottom=0;right=0;pointerEvents=1;labelBackgroundColor=none;fillColor=#f5f5f5;strokeColor=#666666;gradientColor=#b3b3b3;" parent="ZSmk_y_2do82O0z5rN5d-153" vertex="1">
          <mxGeometry width="95" height="40" as="geometry">
            <mxRectangle width="95" height="40" as="alternateBounds" />
          </mxGeometry>
        </mxCell>
        <mxCell id="ZSmk_y_2do82O0z5rN5d-154" value="Customer_ID" style="shape=partialRectangle;html=1;whiteSpace=wrap;connectable=0;overflow=hidden;top=0;left=0;bottom=0;right=0;pointerEvents=1;labelBackgroundColor=none;fillColor=#f5f5f5;strokeColor=#666666;gradientColor=#b3b3b3;" parent="ZSmk_y_2do82O0z5rN5d-153" vertex="1">
          <mxGeometry x="95" width="235" height="40" as="geometry">
            <mxRectangle width="235" height="40" as="alternateBounds" />
          </mxGeometry>
        </mxCell>
        <mxCell id="ZSmk_y_2do82O0z5rN5d-155" value="" style="shape=tableRow;horizontal=0;startSize=0;swimlaneHead=0;swimlaneBody=0;top=0;left=0;bottom=0;right=0;collapsible=0;dropTarget=0;points=[[0,0.5],[1,0.5]];portConstraint=eastwest;labelBackgroundColor=none;fillColor=#f5f5f5;strokeColor=#666666;gradientColor=#b3b3b3;" parent="ZSmk_y_2do82O0z5rN5d-148" vertex="1">
          <mxGeometry y="150" width="330" height="40" as="geometry" />
        </mxCell>
        <mxCell id="fA-xOSXEoonkSRoC_1WO-57" value="String(FK)" style="shape=partialRectangle;html=1;whiteSpace=wrap;connectable=0;overflow=hidden;top=0;left=0;bottom=0;right=0;pointerEvents=1;labelBackgroundColor=none;fillColor=#f5f5f5;strokeColor=#666666;gradientColor=#b3b3b3;" parent="ZSmk_y_2do82O0z5rN5d-155" vertex="1">
          <mxGeometry width="95" height="40" as="geometry">
            <mxRectangle width="95" height="40" as="alternateBounds" />
          </mxGeometry>
        </mxCell>
        <mxCell id="ZSmk_y_2do82O0z5rN5d-156" value="Store_ID" style="shape=partialRectangle;html=1;whiteSpace=wrap;connectable=0;overflow=hidden;top=0;left=0;bottom=0;right=0;pointerEvents=1;labelBackgroundColor=none;fillColor=#f5f5f5;strokeColor=#666666;gradientColor=#b3b3b3;" parent="ZSmk_y_2do82O0z5rN5d-155" vertex="1">
          <mxGeometry x="95" width="235" height="40" as="geometry">
            <mxRectangle width="235" height="40" as="alternateBounds" />
          </mxGeometry>
        </mxCell>
        <mxCell id="ZSmk_y_2do82O0z5rN5d-157" value="" style="shape=tableRow;horizontal=0;startSize=0;swimlaneHead=0;swimlaneBody=0;top=0;left=0;bottom=0;right=0;collapsible=0;dropTarget=0;points=[[0,0.5],[1,0.5]];portConstraint=eastwest;labelBackgroundColor=none;fillColor=#f5f5f5;strokeColor=#666666;gradientColor=#b3b3b3;" parent="ZSmk_y_2do82O0z5rN5d-148" vertex="1">
          <mxGeometry y="190" width="330" height="40" as="geometry" />
        </mxCell>
        <mxCell id="fA-xOSXEoonkSRoC_1WO-58" value="Num" style="shape=partialRectangle;html=1;whiteSpace=wrap;connectable=0;overflow=hidden;top=0;left=0;bottom=0;right=0;pointerEvents=1;labelBackgroundColor=none;fillColor=#f5f5f5;strokeColor=#666666;gradientColor=#b3b3b3;" parent="ZSmk_y_2do82O0z5rN5d-157" vertex="1">
          <mxGeometry width="95" height="40" as="geometry">
            <mxRectangle width="95" height="40" as="alternateBounds" />
          </mxGeometry>
        </mxCell>
        <mxCell id="ZSmk_y_2do82O0z5rN5d-158" value="Order quantity" style="shape=partialRectangle;html=1;whiteSpace=wrap;connectable=0;overflow=hidden;top=0;left=0;bottom=0;right=0;pointerEvents=1;labelBackgroundColor=none;fillColor=#f5f5f5;strokeColor=#666666;gradientColor=#b3b3b3;" parent="ZSmk_y_2do82O0z5rN5d-157" vertex="1">
          <mxGeometry x="95" width="235" height="40" as="geometry">
            <mxRectangle width="235" height="40" as="alternateBounds" />
          </mxGeometry>
        </mxCell>
        <mxCell id="fA-xOSXEoonkSRoC_1WO-100" style="shape=tableRow;horizontal=0;startSize=0;swimlaneHead=0;swimlaneBody=0;top=0;left=0;bottom=0;right=0;collapsible=0;dropTarget=0;points=[[0,0.5],[1,0.5]];portConstraint=eastwest;labelBackgroundColor=none;fillColor=#f5f5f5;strokeColor=#666666;gradientColor=#b3b3b3;" parent="ZSmk_y_2do82O0z5rN5d-148" vertex="1">
          <mxGeometry y="230" width="330" height="40" as="geometry" />
        </mxCell>
        <mxCell id="fA-xOSXEoonkSRoC_1WO-101" value="String(FK)" style="shape=partialRectangle;html=1;whiteSpace=wrap;connectable=0;overflow=hidden;top=0;left=0;bottom=0;right=0;pointerEvents=1;labelBackgroundColor=none;fillColor=#f5f5f5;strokeColor=#666666;gradientColor=#b3b3b3;" parent="fA-xOSXEoonkSRoC_1WO-100" vertex="1">
          <mxGeometry width="95" height="40" as="geometry">
            <mxRectangle width="95" height="40" as="alternateBounds" />
          </mxGeometry>
        </mxCell>
        <mxCell id="fA-xOSXEoonkSRoC_1WO-102" value="Order_ID" style="shape=partialRectangle;html=1;whiteSpace=wrap;connectable=0;overflow=hidden;top=0;left=0;bottom=0;right=0;pointerEvents=1;labelBackgroundColor=none;fillColor=#f5f5f5;strokeColor=#666666;gradientColor=#b3b3b3;" parent="fA-xOSXEoonkSRoC_1WO-100" vertex="1">
          <mxGeometry x="95" width="235" height="40" as="geometry">
            <mxRectangle width="235" height="40" as="alternateBounds" />
          </mxGeometry>
        </mxCell>
        <mxCell id="ZSmk_y_2do82O0z5rN5d-160" value="" style="endArrow=ERmany;html=1;rounded=0;entryX=0;entryY=0.5;entryDx=0;entryDy=0;edgeStyle=orthogonalEdgeStyle;labelBackgroundColor=none;fontColor=default;strokeColor=#23445D;endFill=0;exitX=1;exitY=0.5;exitDx=0;exitDy=0;" parent="1" source="ZSmk_y_2do82O0z5rN5d-151" target="ZSmk_y_2do82O0z5rN5d-140" edge="1">
          <mxGeometry width="50" height="50" relative="1" as="geometry">
            <mxPoint x="1880" y="848" as="sourcePoint" />
            <mxPoint x="1930" y="798" as="targetPoint" />
          </mxGeometry>
        </mxCell>
        <mxCell id="ZSmk_y_2do82O0z5rN5d-161" value="" style="endArrow=none;html=1;rounded=1;edgeStyle=entityRelationEdgeStyle;labelBackgroundColor=none;fontColor=default;strokeColor=#23445D;elbow=vertical;" parent="1" source="ZSmk_y_2do82O0z5rN5d-125" target="ZSmk_y_2do82O0z5rN5d-136" edge="1">
          <mxGeometry width="50" height="50" relative="1" as="geometry">
            <mxPoint x="2190" y="828.5" as="sourcePoint" />
            <mxPoint x="2240" y="778.5" as="targetPoint" />
          </mxGeometry>
        </mxCell>
        <mxCell id="ZSmk_y_2do82O0z5rN5d-162" value="&lt;h1&gt;Retail Business ER Diagrams Rough Sketch&lt;/h1&gt;" style="whiteSpace=wrap;html=1;aspect=fixed;labelBackgroundColor=none;fillColor=#182E3E;strokeColor=#FFFFFF;fontColor=#FFFFFF;" parent="1" vertex="1">
          <mxGeometry x="90" y="280" width="860" height="860" as="geometry" />
        </mxCell>
        <mxCell id="fA-xOSXEoonkSRoC_1WO-5" value="" style="endArrow=none;html=1;rounded=0;entryX=0;entryY=0.5;entryDx=0;entryDy=0;exitX=1;exitY=0.5;exitDx=0;exitDy=0;fillColor=#f5f5f5;gradientColor=#b3b3b3;strokeColor=#666666;" parent="1" source="ZSmk_y_2do82O0z5rN5d-149" target="fA-xOSXEoonkSRoC_1WO-3" edge="1">
          <mxGeometry width="50" height="50" relative="1" as="geometry">
            <mxPoint x="1880" y="870" as="sourcePoint" />
            <mxPoint x="1930" y="820" as="targetPoint" />
          </mxGeometry>
        </mxCell>
        <mxCell id="fA-xOSXEoonkSRoC_1WO-16" value="Store" style="shape=table;startSize=30;container=1;collapsible=0;childLayout=tableLayout;fillColor=#f5f5f5;gradientColor=#b3b3b3;strokeColor=#666666;" parent="1" vertex="1">
          <mxGeometry x="1990" y="1071" width="190" height="230" as="geometry" />
        </mxCell>
        <mxCell id="fA-xOSXEoonkSRoC_1WO-17" value="" style="shape=tableRow;horizontal=0;startSize=0;swimlaneHead=0;swimlaneBody=0;strokeColor=#666666;top=0;left=0;bottom=0;right=0;collapsible=0;dropTarget=0;fillColor=#f5f5f5;points=[[0,0.5],[1,0.5]];portConstraint=eastwest;gradientColor=#b3b3b3;" parent="fA-xOSXEoonkSRoC_1WO-16" vertex="1">
          <mxGeometry y="30" width="190" height="40" as="geometry" />
        </mxCell>
        <mxCell id="fA-xOSXEoonkSRoC_1WO-18" value="String(PK)" style="shape=partialRectangle;html=1;whiteSpace=wrap;connectable=0;strokeColor=#666666;overflow=hidden;fillColor=#f5f5f5;top=0;left=0;bottom=0;right=0;pointerEvents=1;gradientColor=#b3b3b3;" parent="fA-xOSXEoonkSRoC_1WO-17" vertex="1">
          <mxGeometry width="63" height="40" as="geometry">
            <mxRectangle width="63" height="40" as="alternateBounds" />
          </mxGeometry>
        </mxCell>
        <mxCell id="fA-xOSXEoonkSRoC_1WO-19" value="Store_ID" style="shape=partialRectangle;html=1;whiteSpace=wrap;connectable=0;strokeColor=#666666;overflow=hidden;fillColor=#f5f5f5;top=0;left=0;bottom=0;right=0;pointerEvents=1;gradientColor=#b3b3b3;" parent="fA-xOSXEoonkSRoC_1WO-17" vertex="1">
          <mxGeometry x="63" width="127" height="40" as="geometry">
            <mxRectangle width="127" height="40" as="alternateBounds" />
          </mxGeometry>
        </mxCell>
        <mxCell id="fA-xOSXEoonkSRoC_1WO-20" value="" style="shape=tableRow;horizontal=0;startSize=0;swimlaneHead=0;swimlaneBody=0;strokeColor=#666666;top=0;left=0;bottom=0;right=0;collapsible=0;dropTarget=0;fillColor=#f5f5f5;points=[[0,0.5],[1,0.5]];portConstraint=eastwest;gradientColor=#b3b3b3;" parent="fA-xOSXEoonkSRoC_1WO-16" vertex="1">
          <mxGeometry y="70" width="190" height="40" as="geometry" />
        </mxCell>
        <mxCell id="fA-xOSXEoonkSRoC_1WO-21" value="String(FK)" style="shape=partialRectangle;html=1;whiteSpace=wrap;connectable=0;strokeColor=#666666;overflow=hidden;fillColor=#f5f5f5;top=0;left=0;bottom=0;right=0;pointerEvents=1;gradientColor=#b3b3b3;" parent="fA-xOSXEoonkSRoC_1WO-20" vertex="1">
          <mxGeometry width="63" height="40" as="geometry">
            <mxRectangle width="63" height="40" as="alternateBounds" />
          </mxGeometry>
        </mxCell>
        <mxCell id="fA-xOSXEoonkSRoC_1WO-22" value="Employee_ID" style="shape=partialRectangle;html=1;whiteSpace=wrap;connectable=0;strokeColor=#666666;overflow=hidden;fillColor=#f5f5f5;top=0;left=0;bottom=0;right=0;pointerEvents=1;gradientColor=#b3b3b3;" parent="fA-xOSXEoonkSRoC_1WO-20" vertex="1">
          <mxGeometry x="63" width="127" height="40" as="geometry">
            <mxRectangle width="127" height="40" as="alternateBounds" />
          </mxGeometry>
        </mxCell>
        <mxCell id="fA-xOSXEoonkSRoC_1WO-23" value="" style="shape=tableRow;horizontal=0;startSize=0;swimlaneHead=0;swimlaneBody=0;strokeColor=#666666;top=0;left=0;bottom=0;right=0;collapsible=0;dropTarget=0;fillColor=#f5f5f5;points=[[0,0.5],[1,0.5]];portConstraint=eastwest;gradientColor=#b3b3b3;" parent="fA-xOSXEoonkSRoC_1WO-16" vertex="1">
          <mxGeometry y="110" width="190" height="40" as="geometry" />
        </mxCell>
        <mxCell id="fA-xOSXEoonkSRoC_1WO-24" value="String(FK)" style="shape=partialRectangle;html=1;whiteSpace=wrap;connectable=0;strokeColor=#666666;overflow=hidden;fillColor=#f5f5f5;top=0;left=0;bottom=0;right=0;pointerEvents=1;gradientColor=#b3b3b3;" parent="fA-xOSXEoonkSRoC_1WO-23" vertex="1">
          <mxGeometry width="63" height="40" as="geometry">
            <mxRectangle width="63" height="40" as="alternateBounds" />
          </mxGeometry>
        </mxCell>
        <mxCell id="fA-xOSXEoonkSRoC_1WO-25" value="Order_ID" style="shape=partialRectangle;html=1;whiteSpace=wrap;connectable=0;strokeColor=#666666;overflow=hidden;fillColor=#f5f5f5;top=0;left=0;bottom=0;right=0;pointerEvents=1;gradientColor=#b3b3b3;" parent="fA-xOSXEoonkSRoC_1WO-23" vertex="1">
          <mxGeometry x="63" width="127" height="40" as="geometry">
            <mxRectangle width="127" height="40" as="alternateBounds" />
          </mxGeometry>
        </mxCell>
        <mxCell id="fA-xOSXEoonkSRoC_1WO-26" value="" style="shape=tableRow;horizontal=0;startSize=0;swimlaneHead=0;swimlaneBody=0;strokeColor=#666666;top=0;left=0;bottom=0;right=0;collapsible=0;dropTarget=0;fillColor=#f5f5f5;points=[[0,0.5],[1,0.5]];portConstraint=eastwest;gradientColor=#b3b3b3;" parent="fA-xOSXEoonkSRoC_1WO-16" vertex="1">
          <mxGeometry y="150" width="190" height="40" as="geometry" />
        </mxCell>
        <mxCell id="fA-xOSXEoonkSRoC_1WO-27" value="VARCHAR" style="shape=partialRectangle;html=1;whiteSpace=wrap;connectable=0;strokeColor=#666666;overflow=hidden;fillColor=#f5f5f5;top=0;left=0;bottom=0;right=0;pointerEvents=1;gradientColor=#b3b3b3;" parent="fA-xOSXEoonkSRoC_1WO-26" vertex="1">
          <mxGeometry width="63" height="40" as="geometry">
            <mxRectangle width="63" height="40" as="alternateBounds" />
          </mxGeometry>
        </mxCell>
        <mxCell id="fA-xOSXEoonkSRoC_1WO-28" value="Location" style="shape=partialRectangle;html=1;whiteSpace=wrap;connectable=0;strokeColor=#666666;overflow=hidden;fillColor=#f5f5f5;top=0;left=0;bottom=0;right=0;pointerEvents=1;gradientColor=#b3b3b3;" parent="fA-xOSXEoonkSRoC_1WO-26" vertex="1">
          <mxGeometry x="63" width="127" height="40" as="geometry">
            <mxRectangle width="127" height="40" as="alternateBounds" />
          </mxGeometry>
        </mxCell>
        <mxCell id="fA-xOSXEoonkSRoC_1WO-29" style="shape=tableRow;horizontal=0;startSize=0;swimlaneHead=0;swimlaneBody=0;strokeColor=#666666;top=0;left=0;bottom=0;right=0;collapsible=0;dropTarget=0;fillColor=#f5f5f5;points=[[0,0.5],[1,0.5]];portConstraint=eastwest;gradientColor=#b3b3b3;" parent="fA-xOSXEoonkSRoC_1WO-16" vertex="1">
          <mxGeometry y="190" width="190" height="40" as="geometry" />
        </mxCell>
        <mxCell id="fA-xOSXEoonkSRoC_1WO-30" value="String(FK)" style="shape=partialRectangle;html=1;whiteSpace=wrap;connectable=0;strokeColor=#666666;overflow=hidden;fillColor=#f5f5f5;top=0;left=0;bottom=0;right=0;pointerEvents=1;gradientColor=#b3b3b3;" parent="fA-xOSXEoonkSRoC_1WO-29" vertex="1">
          <mxGeometry width="63" height="40" as="geometry">
            <mxRectangle width="63" height="40" as="alternateBounds" />
          </mxGeometry>
        </mxCell>
        <mxCell id="fA-xOSXEoonkSRoC_1WO-31" value="Inventory_ID" style="shape=partialRectangle;html=1;whiteSpace=wrap;connectable=0;strokeColor=#666666;overflow=hidden;fillColor=#f5f5f5;top=0;left=0;bottom=0;right=0;pointerEvents=1;gradientColor=#b3b3b3;" parent="fA-xOSXEoonkSRoC_1WO-29" vertex="1">
          <mxGeometry x="63" width="127" height="40" as="geometry">
            <mxRectangle width="127" height="40" as="alternateBounds" />
          </mxGeometry>
        </mxCell>
        <mxCell id="fA-xOSXEoonkSRoC_1WO-32" value="Inventory" style="shape=table;startSize=30;container=1;collapsible=0;childLayout=tableLayout;fillColor=#f5f5f5;gradientColor=#b3b3b3;strokeColor=#666666;" parent="1" vertex="1">
          <mxGeometry x="2050" y="490.5" width="200" height="230" as="geometry" />
        </mxCell>
        <mxCell id="fA-xOSXEoonkSRoC_1WO-33" value="" style="shape=tableRow;horizontal=0;startSize=0;swimlaneHead=0;swimlaneBody=0;strokeColor=#666666;top=0;left=0;bottom=0;right=0;collapsible=0;dropTarget=0;fillColor=#f5f5f5;points=[[0,0.5],[1,0.5]];portConstraint=eastwest;gradientColor=#b3b3b3;" parent="fA-xOSXEoonkSRoC_1WO-32" vertex="1">
          <mxGeometry y="30" width="200" height="40" as="geometry" />
        </mxCell>
        <mxCell id="fA-xOSXEoonkSRoC_1WO-34" value="String(PK)" style="shape=partialRectangle;html=1;whiteSpace=wrap;connectable=0;strokeColor=#666666;overflow=hidden;fillColor=#f5f5f5;top=0;left=0;bottom=0;right=0;pointerEvents=1;gradientColor=#b3b3b3;" parent="fA-xOSXEoonkSRoC_1WO-33" vertex="1">
          <mxGeometry width="56" height="40" as="geometry">
            <mxRectangle width="56" height="40" as="alternateBounds" />
          </mxGeometry>
        </mxCell>
        <mxCell id="fA-xOSXEoonkSRoC_1WO-35" value="Inventory_ID" style="shape=partialRectangle;html=1;whiteSpace=wrap;connectable=0;strokeColor=#666666;overflow=hidden;fillColor=#f5f5f5;top=0;left=0;bottom=0;right=0;pointerEvents=1;gradientColor=#b3b3b3;" parent="fA-xOSXEoonkSRoC_1WO-33" vertex="1">
          <mxGeometry x="56" width="144" height="40" as="geometry">
            <mxRectangle width="144" height="40" as="alternateBounds" />
          </mxGeometry>
        </mxCell>
        <mxCell id="fA-xOSXEoonkSRoC_1WO-36" value="" style="shape=tableRow;horizontal=0;startSize=0;swimlaneHead=0;swimlaneBody=0;strokeColor=#666666;top=0;left=0;bottom=0;right=0;collapsible=0;dropTarget=0;fillColor=#f5f5f5;points=[[0,0.5],[1,0.5]];portConstraint=eastwest;gradientColor=#b3b3b3;" parent="fA-xOSXEoonkSRoC_1WO-32" vertex="1">
          <mxGeometry y="70" width="200" height="40" as="geometry" />
        </mxCell>
        <mxCell id="fA-xOSXEoonkSRoC_1WO-37" value="String(FK)" style="shape=partialRectangle;html=1;whiteSpace=wrap;connectable=0;strokeColor=#666666;overflow=hidden;fillColor=#f5f5f5;top=0;left=0;bottom=0;right=0;pointerEvents=1;gradientColor=#b3b3b3;" parent="fA-xOSXEoonkSRoC_1WO-36" vertex="1">
          <mxGeometry width="56" height="40" as="geometry">
            <mxRectangle width="56" height="40" as="alternateBounds" />
          </mxGeometry>
        </mxCell>
        <mxCell id="fA-xOSXEoonkSRoC_1WO-38" value="Store_ID" style="shape=partialRectangle;html=1;whiteSpace=wrap;connectable=0;strokeColor=#666666;overflow=hidden;fillColor=#f5f5f5;top=0;left=0;bottom=0;right=0;pointerEvents=1;gradientColor=#b3b3b3;" parent="fA-xOSXEoonkSRoC_1WO-36" vertex="1">
          <mxGeometry x="56" width="144" height="40" as="geometry">
            <mxRectangle width="144" height="40" as="alternateBounds" />
          </mxGeometry>
        </mxCell>
        <mxCell id="fA-xOSXEoonkSRoC_1WO-39" value="" style="shape=tableRow;horizontal=0;startSize=0;swimlaneHead=0;swimlaneBody=0;strokeColor=#666666;top=0;left=0;bottom=0;right=0;collapsible=0;dropTarget=0;fillColor=#f5f5f5;points=[[0,0.5],[1,0.5]];portConstraint=eastwest;gradientColor=#b3b3b3;" parent="fA-xOSXEoonkSRoC_1WO-32" vertex="1">
          <mxGeometry y="110" width="200" height="40" as="geometry" />
        </mxCell>
        <mxCell id="fA-xOSXEoonkSRoC_1WO-40" value="String(PK)" style="shape=partialRectangle;html=1;whiteSpace=wrap;connectable=0;strokeColor=#666666;overflow=hidden;fillColor=#f5f5f5;top=0;left=0;bottom=0;right=0;pointerEvents=1;gradientColor=#b3b3b3;" parent="fA-xOSXEoonkSRoC_1WO-39" vertex="1">
          <mxGeometry width="56" height="40" as="geometry">
            <mxRectangle width="56" height="40" as="alternateBounds" />
          </mxGeometry>
        </mxCell>
        <mxCell id="fA-xOSXEoonkSRoC_1WO-41" value="ID_product" style="shape=partialRectangle;html=1;whiteSpace=wrap;connectable=0;strokeColor=#666666;overflow=hidden;fillColor=#f5f5f5;top=0;left=0;bottom=0;right=0;pointerEvents=1;gradientColor=#b3b3b3;" parent="fA-xOSXEoonkSRoC_1WO-39" vertex="1">
          <mxGeometry x="56" width="144" height="40" as="geometry">
            <mxRectangle width="144" height="40" as="alternateBounds" />
          </mxGeometry>
        </mxCell>
        <mxCell id="fA-xOSXEoonkSRoC_1WO-42" value="" style="shape=tableRow;horizontal=0;startSize=0;swimlaneHead=0;swimlaneBody=0;strokeColor=#666666;top=0;left=0;bottom=0;right=0;collapsible=0;dropTarget=0;fillColor=#f5f5f5;points=[[0,0.5],[1,0.5]];portConstraint=eastwest;gradientColor=#b3b3b3;" parent="fA-xOSXEoonkSRoC_1WO-32" vertex="1">
          <mxGeometry y="150" width="200" height="40" as="geometry" />
        </mxCell>
        <mxCell id="fA-xOSXEoonkSRoC_1WO-43" value="Boolean" style="shape=partialRectangle;html=1;whiteSpace=wrap;connectable=0;strokeColor=#666666;overflow=hidden;fillColor=#f5f5f5;top=0;left=0;bottom=0;right=0;pointerEvents=1;gradientColor=#b3b3b3;" parent="fA-xOSXEoonkSRoC_1WO-42" vertex="1">
          <mxGeometry width="56" height="40" as="geometry">
            <mxRectangle width="56" height="40" as="alternateBounds" />
          </mxGeometry>
        </mxCell>
        <mxCell id="fA-xOSXEoonkSRoC_1WO-44" value="Inventory_available?" style="shape=partialRectangle;html=1;whiteSpace=wrap;connectable=0;strokeColor=#666666;overflow=hidden;fillColor=#f5f5f5;top=0;left=0;bottom=0;right=0;pointerEvents=1;gradientColor=#b3b3b3;" parent="fA-xOSXEoonkSRoC_1WO-42" vertex="1">
          <mxGeometry x="56" width="144" height="40" as="geometry">
            <mxRectangle width="144" height="40" as="alternateBounds" />
          </mxGeometry>
        </mxCell>
        <mxCell id="fA-xOSXEoonkSRoC_1WO-45" value="" style="shape=tableRow;horizontal=0;startSize=0;swimlaneHead=0;swimlaneBody=0;strokeColor=#666666;top=0;left=0;bottom=0;right=0;collapsible=0;dropTarget=0;fillColor=#f5f5f5;points=[[0,0.5],[1,0.5]];portConstraint=eastwest;gradientColor=#b3b3b3;" parent="fA-xOSXEoonkSRoC_1WO-32" vertex="1">
          <mxGeometry y="190" width="200" height="40" as="geometry" />
        </mxCell>
        <mxCell id="fA-xOSXEoonkSRoC_1WO-46" value="Boolean" style="shape=partialRectangle;html=1;whiteSpace=wrap;connectable=0;strokeColor=#666666;overflow=hidden;fillColor=#f5f5f5;top=0;left=0;bottom=0;right=0;pointerEvents=1;gradientColor=#b3b3b3;" parent="fA-xOSXEoonkSRoC_1WO-45" vertex="1">
          <mxGeometry width="56" height="40" as="geometry">
            <mxRectangle width="56" height="40" as="alternateBounds" />
          </mxGeometry>
        </mxCell>
        <mxCell id="fA-xOSXEoonkSRoC_1WO-47" value="Returned?" style="shape=partialRectangle;html=1;whiteSpace=wrap;connectable=0;strokeColor=#666666;overflow=hidden;fillColor=#f5f5f5;top=0;left=0;bottom=0;right=0;pointerEvents=1;gradientColor=#b3b3b3;" parent="fA-xOSXEoonkSRoC_1WO-45" vertex="1">
          <mxGeometry x="56" width="144" height="40" as="geometry">
            <mxRectangle width="144" height="40" as="alternateBounds" />
          </mxGeometry>
        </mxCell>
        <mxCell id="fA-xOSXEoonkSRoC_1WO-50" value="" style="endArrow=none;html=1;rounded=0;entryX=1.003;entryY=0.824;entryDx=0;entryDy=0;entryPerimeter=0;exitX=1;exitY=0.5;exitDx=0;exitDy=0;edgeStyle=orthogonalEdgeStyle;" parent="1" source="fA-xOSXEoonkSRoC_1WO-17" target="fA-xOSXEoonkSRoC_1WO-36" edge="1">
          <mxGeometry width="50" height="50" relative="1" as="geometry">
            <mxPoint x="2390" y="710" as="sourcePoint" />
            <mxPoint x="2440" y="660" as="targetPoint" />
            <Array as="points">
              <mxPoint x="2210" y="840" />
              <mxPoint x="2335" y="840" />
              <mxPoint x="2335" y="594" />
            </Array>
          </mxGeometry>
        </mxCell>
        <mxCell id="fA-xOSXEoonkSRoC_1WO-52" value="" style="endArrow=none;html=1;rounded=0;exitX=1.002;exitY=0.692;exitDx=0;exitDy=0;exitPerimeter=0;entryX=0;entryY=0.25;entryDx=0;entryDy=0;edgeStyle=orthogonalEdgeStyle;" parent="1" source="fA-xOSXEoonkSRoC_1WO-8" target="fA-xOSXEoonkSRoC_1WO-16" edge="1">
          <mxGeometry width="50" height="50" relative="1" as="geometry">
            <mxPoint x="2020" y="1150" as="sourcePoint" />
            <mxPoint x="2070" y="1100" as="targetPoint" />
          </mxGeometry>
        </mxCell>
        <mxCell id="fA-xOSXEoonkSRoC_1WO-53" value="" style="endArrow=none;html=1;rounded=0;entryX=0;entryY=0.5;entryDx=0;entryDy=0;exitX=1;exitY=0.5;exitDx=0;exitDy=0;edgeStyle=orthogonalEdgeStyle;" parent="1" source="ZSmk_y_2do82O0z5rN5d-146" target="fA-xOSXEoonkSRoC_1WO-42" edge="1">
          <mxGeometry width="50" height="50" relative="1" as="geometry">
            <mxPoint x="1960" y="760" as="sourcePoint" />
            <mxPoint x="2010" y="710" as="targetPoint" />
          </mxGeometry>
        </mxCell>
        <mxCell id="fA-xOSXEoonkSRoC_1WO-75" value="" style="endArrow=none;html=1;rounded=0;entryX=0.008;entryY=0.711;entryDx=0;entryDy=0;entryPerimeter=0;exitX=1;exitY=0.5;exitDx=0;exitDy=0;edgeStyle=orthogonalEdgeStyle;" parent="1" source="ZSmk_y_2do82O0z5rN5d-106" target="ZSmk_y_2do82O0z5rN5d-129" edge="1">
          <mxGeometry width="50" height="50" relative="1" as="geometry">
            <mxPoint x="1470" y="850" as="sourcePoint" />
            <mxPoint x="1520" y="800" as="targetPoint" />
          </mxGeometry>
        </mxCell>
        <mxCell id="fA-xOSXEoonkSRoC_1WO-78" value="Employee" style="shape=table;startSize=30;container=1;collapsible=0;childLayout=tableLayout;fillColor=#f5f5f5;gradientColor=#b3b3b3;strokeColor=#666666;" parent="1" vertex="1">
          <mxGeometry x="2260" y="872" width="280" height="230" as="geometry" />
        </mxCell>
        <mxCell id="fA-xOSXEoonkSRoC_1WO-79" value="" style="shape=tableRow;horizontal=0;startSize=0;swimlaneHead=0;swimlaneBody=0;strokeColor=#666666;top=0;left=0;bottom=0;right=0;collapsible=0;dropTarget=0;fillColor=#f5f5f5;points=[[0,0.5],[1,0.5]];portConstraint=eastwest;gradientColor=#b3b3b3;" parent="fA-xOSXEoonkSRoC_1WO-78" vertex="1">
          <mxGeometry y="30" width="280" height="40" as="geometry" />
        </mxCell>
        <mxCell id="fA-xOSXEoonkSRoC_1WO-80" value="String(PK)" style="shape=partialRectangle;html=1;whiteSpace=wrap;connectable=0;strokeColor=#666666;overflow=hidden;fillColor=#f5f5f5;top=0;left=0;bottom=0;right=0;pointerEvents=1;gradientColor=#b3b3b3;" parent="fA-xOSXEoonkSRoC_1WO-79" vertex="1">
          <mxGeometry width="93" height="40" as="geometry">
            <mxRectangle width="93" height="40" as="alternateBounds" />
          </mxGeometry>
        </mxCell>
        <mxCell id="fA-xOSXEoonkSRoC_1WO-81" value="Employee_ID" style="shape=partialRectangle;html=1;whiteSpace=wrap;connectable=0;strokeColor=#666666;overflow=hidden;fillColor=#f5f5f5;top=0;left=0;bottom=0;right=0;pointerEvents=1;gradientColor=#b3b3b3;" parent="fA-xOSXEoonkSRoC_1WO-79" vertex="1">
          <mxGeometry x="93" width="187" height="40" as="geometry">
            <mxRectangle width="187" height="40" as="alternateBounds" />
          </mxGeometry>
        </mxCell>
        <mxCell id="fA-xOSXEoonkSRoC_1WO-82" value="" style="shape=tableRow;horizontal=0;startSize=0;swimlaneHead=0;swimlaneBody=0;strokeColor=#666666;top=0;left=0;bottom=0;right=0;collapsible=0;dropTarget=0;fillColor=#f5f5f5;points=[[0,0.5],[1,0.5]];portConstraint=eastwest;gradientColor=#b3b3b3;" parent="fA-xOSXEoonkSRoC_1WO-78" vertex="1">
          <mxGeometry y="70" width="280" height="40" as="geometry" />
        </mxCell>
        <mxCell id="fA-xOSXEoonkSRoC_1WO-83" value="(FK)" style="shape=partialRectangle;html=1;whiteSpace=wrap;connectable=0;strokeColor=#666666;overflow=hidden;fillColor=#f5f5f5;top=0;left=0;bottom=0;right=0;pointerEvents=1;gradientColor=#b3b3b3;" parent="fA-xOSXEoonkSRoC_1WO-82" vertex="1">
          <mxGeometry width="93" height="40" as="geometry">
            <mxRectangle width="93" height="40" as="alternateBounds" />
          </mxGeometry>
        </mxCell>
        <mxCell id="fA-xOSXEoonkSRoC_1WO-84" value="Store_ID" style="shape=partialRectangle;html=1;whiteSpace=wrap;connectable=0;strokeColor=#666666;overflow=hidden;fillColor=#f5f5f5;top=0;left=0;bottom=0;right=0;pointerEvents=1;gradientColor=#b3b3b3;" parent="fA-xOSXEoonkSRoC_1WO-82" vertex="1">
          <mxGeometry x="93" width="187" height="40" as="geometry">
            <mxRectangle width="187" height="40" as="alternateBounds" />
          </mxGeometry>
        </mxCell>
        <mxCell id="fA-xOSXEoonkSRoC_1WO-85" value="" style="shape=tableRow;horizontal=0;startSize=0;swimlaneHead=0;swimlaneBody=0;strokeColor=#666666;top=0;left=0;bottom=0;right=0;collapsible=0;dropTarget=0;fillColor=#f5f5f5;points=[[0,0.5],[1,0.5]];portConstraint=eastwest;gradientColor=#b3b3b3;" parent="fA-xOSXEoonkSRoC_1WO-78" vertex="1">
          <mxGeometry y="110" width="280" height="40" as="geometry" />
        </mxCell>
        <mxCell id="fA-xOSXEoonkSRoC_1WO-86" value="VARCHAR" style="shape=partialRectangle;html=1;whiteSpace=wrap;connectable=0;strokeColor=#666666;overflow=hidden;fillColor=#f5f5f5;top=0;left=0;bottom=0;right=0;pointerEvents=1;gradientColor=#b3b3b3;" parent="fA-xOSXEoonkSRoC_1WO-85" vertex="1">
          <mxGeometry width="93" height="40" as="geometry">
            <mxRectangle width="93" height="40" as="alternateBounds" />
          </mxGeometry>
        </mxCell>
        <mxCell id="fA-xOSXEoonkSRoC_1WO-87" value="Full_Name" style="shape=partialRectangle;html=1;whiteSpace=wrap;connectable=0;strokeColor=#666666;overflow=hidden;fillColor=#f5f5f5;top=0;left=0;bottom=0;right=0;pointerEvents=1;gradientColor=#b3b3b3;" parent="fA-xOSXEoonkSRoC_1WO-85" vertex="1">
          <mxGeometry x="93" width="187" height="40" as="geometry">
            <mxRectangle width="187" height="40" as="alternateBounds" />
          </mxGeometry>
        </mxCell>
        <mxCell id="fA-xOSXEoonkSRoC_1WO-88" value="" style="shape=tableRow;horizontal=0;startSize=0;swimlaneHead=0;swimlaneBody=0;strokeColor=#666666;top=0;left=0;bottom=0;right=0;collapsible=0;dropTarget=0;fillColor=#f5f5f5;points=[[0,0.5],[1,0.5]];portConstraint=eastwest;gradientColor=#b3b3b3;" parent="fA-xOSXEoonkSRoC_1WO-78" vertex="1">
          <mxGeometry y="150" width="280" height="40" as="geometry" />
        </mxCell>
        <mxCell id="fA-xOSXEoonkSRoC_1WO-89" value="String" style="shape=partialRectangle;html=1;whiteSpace=wrap;connectable=0;strokeColor=#666666;overflow=hidden;fillColor=#f5f5f5;top=0;left=0;bottom=0;right=0;pointerEvents=1;gradientColor=#b3b3b3;" parent="fA-xOSXEoonkSRoC_1WO-88" vertex="1">
          <mxGeometry width="93" height="40" as="geometry">
            <mxRectangle width="93" height="40" as="alternateBounds" />
          </mxGeometry>
        </mxCell>
        <mxCell id="fA-xOSXEoonkSRoC_1WO-90" value="Phone_Number" style="shape=partialRectangle;html=1;whiteSpace=wrap;connectable=0;strokeColor=#666666;overflow=hidden;fillColor=#f5f5f5;top=0;left=0;bottom=0;right=0;pointerEvents=1;gradientColor=#b3b3b3;" parent="fA-xOSXEoonkSRoC_1WO-88" vertex="1">
          <mxGeometry x="93" width="187" height="40" as="geometry">
            <mxRectangle width="187" height="40" as="alternateBounds" />
          </mxGeometry>
        </mxCell>
        <mxCell id="fA-xOSXEoonkSRoC_1WO-91" value="" style="shape=tableRow;horizontal=0;startSize=0;swimlaneHead=0;swimlaneBody=0;strokeColor=#666666;top=0;left=0;bottom=0;right=0;collapsible=0;dropTarget=0;fillColor=#f5f5f5;points=[[0,0.5],[1,0.5]];portConstraint=eastwest;gradientColor=#b3b3b3;" parent="fA-xOSXEoonkSRoC_1WO-78" vertex="1">
          <mxGeometry y="190" width="280" height="40" as="geometry" />
        </mxCell>
        <mxCell id="fA-xOSXEoonkSRoC_1WO-92" value="Num" style="shape=partialRectangle;html=1;whiteSpace=wrap;connectable=0;strokeColor=#666666;overflow=hidden;fillColor=#f5f5f5;top=0;left=0;bottom=0;right=0;pointerEvents=1;gradientColor=#b3b3b3;" parent="fA-xOSXEoonkSRoC_1WO-91" vertex="1">
          <mxGeometry width="93" height="40" as="geometry">
            <mxRectangle width="93" height="40" as="alternateBounds" />
          </mxGeometry>
        </mxCell>
        <mxCell id="fA-xOSXEoonkSRoC_1WO-93" value="Weekly_Hours_Completed" style="shape=partialRectangle;html=1;whiteSpace=wrap;connectable=0;strokeColor=#666666;overflow=hidden;fillColor=#f5f5f5;top=0;left=0;bottom=0;right=0;pointerEvents=1;gradientColor=#b3b3b3;" parent="fA-xOSXEoonkSRoC_1WO-91" vertex="1">
          <mxGeometry x="93" width="187" height="40" as="geometry">
            <mxRectangle width="187" height="40" as="alternateBounds" />
          </mxGeometry>
        </mxCell>
        <mxCell id="fA-xOSXEoonkSRoC_1WO-94" value="" style="endArrow=none;html=1;rounded=0;entryX=0;entryY=0.5;entryDx=0;entryDy=0;exitX=1;exitY=0.5;exitDx=0;exitDy=0;edgeStyle=orthogonalEdgeStyle;" parent="1" source="fA-xOSXEoonkSRoC_1WO-17" target="fA-xOSXEoonkSRoC_1WO-82" edge="1">
          <mxGeometry width="50" height="50" relative="1" as="geometry">
            <mxPoint x="2380" y="1090" as="sourcePoint" />
            <mxPoint x="2430" y="1040" as="targetPoint" />
          </mxGeometry>
        </mxCell>
        <mxCell id="fA-xOSXEoonkSRoC_1WO-96" value="" style="endArrow=none;html=1;rounded=0;entryX=0;entryY=0.5;entryDx=0;entryDy=0;exitX=1;exitY=0.5;exitDx=0;exitDy=0;" parent="1" source="fA-xOSXEoonkSRoC_1WO-20" target="fA-xOSXEoonkSRoC_1WO-79" edge="1">
          <mxGeometry width="50" height="50" relative="1" as="geometry">
            <mxPoint x="2170" y="1190" as="sourcePoint" />
            <mxPoint x="2220" y="1140" as="targetPoint" />
          </mxGeometry>
        </mxCell>
        <mxCell id="fA-xOSXEoonkSRoC_1WO-97" value="" style="endArrow=none;html=1;rounded=0;exitX=-0.014;exitY=0.861;exitDx=0;exitDy=0;exitPerimeter=0;entryX=0;entryY=0.25;entryDx=0;entryDy=0;edgeStyle=orthogonalEdgeStyle;" parent="1" source="fA-xOSXEoonkSRoC_1WO-29" target="fA-xOSXEoonkSRoC_1WO-32" edge="1">
          <mxGeometry width="50" height="50" relative="1" as="geometry">
            <mxPoint x="1960" y="1234" as="sourcePoint" />
            <mxPoint x="1970" y="1190" as="targetPoint" />
            <Array as="points">
              <mxPoint x="1950" y="1295" />
              <mxPoint x="1950" y="1180" />
              <mxPoint x="1970" y="1180" />
              <mxPoint x="1970" y="915" />
              <mxPoint x="2040" y="915" />
              <mxPoint x="2040" y="548" />
            </Array>
          </mxGeometry>
        </mxCell>
        <mxCell id="fA-xOSXEoonkSRoC_1WO-98" style="edgeStyle=orthogonalEdgeStyle;rounded=0;orthogonalLoop=1;jettySize=auto;html=1;exitX=0;exitY=0.5;exitDx=0;exitDy=0;entryX=0;entryY=0.5;entryDx=0;entryDy=0;" parent="1" source="ZSmk_y_2do82O0z5rN5d-153" target="ZSmk_y_2do82O0z5rN5d-106" edge="1">
          <mxGeometry relative="1" as="geometry" />
        </mxCell>
        <mxCell id="fA-xOSXEoonkSRoC_1WO-99" style="edgeStyle=orthogonalEdgeStyle;rounded=0;orthogonalLoop=1;jettySize=auto;html=1;entryX=0;entryY=0.5;entryDx=0;entryDy=0;" parent="1" source="ZSmk_y_2do82O0z5rN5d-155" target="fA-xOSXEoonkSRoC_1WO-17" edge="1">
          <mxGeometry relative="1" as="geometry">
            <Array as="points">
              <mxPoint x="1630" y="1094" />
              <mxPoint x="1630" y="1170" />
              <mxPoint x="1990" y="1170" />
            </Array>
          </mxGeometry>
        </mxCell>
        <mxCell id="fA-xOSXEoonkSRoC_1WO-103" style="edgeStyle=orthogonalEdgeStyle;rounded=0;orthogonalLoop=1;jettySize=auto;html=1;exitX=1;exitY=0.5;exitDx=0;exitDy=0;entryX=0;entryY=0.5;entryDx=0;entryDy=0;" parent="1" source="fA-xOSXEoonkSRoC_1WO-100" target="ZSmk_y_2do82O0z5rN5d-125" edge="1">
          <mxGeometry relative="1" as="geometry" />
        </mxCell>
      </root>
    </mxGraphModel>
  </diagram>
</mxfile>
